<?xml version="1.0" encoding="UTF-8"?>
<svg width="1440px" height="1024px" viewBox="0 0 1440 1024" version="1.1" xmlns="http://www.w3.org/2000/svg" xmlns:xlink="http://www.w3.org/1999/xlink">
    <!-- Generator: Sketch 43.1 (39012) - http://www.bohemiancoding.com/sketch -->
    <title>Group 3</title>
    <desc>Created with Sketch.</desc>
    <defs>
        <rect id="path-1" x="0" y="0" width="1440" height="1024"></rect>
    </defs>
    <g id="Page-1" stroke="none" stroke-width="1" fill="none" fill-rule="evenodd">
        <g id="Desktop-HD">
            <g id="Group-3">
                <mask id="mask-2" fill="white">
                    <use xlink:href="#path-1"></use>
                </mask>
                <g id="Mask"></g>
                <g mask="url(#mask-2)" id="Group-2" fill="#0A0A08">
                    <g opacity="0.167912138" style="mix-blend-mode: overlay;" transform="translate(728.000000, 0.000000)">
                        <path d="M510.352614,195.59371 L509.886071,192.008095 C512.5952,191.652716 515.007438,190.265677 516.674797,188.096274 C518.342157,185.924219 519.063178,183.235007 518.71062,180.521927 C518.355411,177.808847 516.966387,175.3928 514.798024,173.729945 C512.62966,172.061785 509.944389,171.335115 507.229959,171.693146 L506.760766,168.107531 C510.429488,167.6222 514.0664,168.60347 517.000847,170.860392 C519.932644,173.117314 521.812068,176.382027 522.291865,180.052509 C522.771662,183.72299 521.796164,187.361647 519.540324,190.297502 C517.284484,193.233357 514.021336,195.113683 510.352614,195.59371" id="Fill-3"></path>
                        <path d="M168.262854,576.944558 C166.4497,576.944558 164.628593,576.69261 162.836645,576.18341 C157.760343,574.740677 153.550855,571.409662 150.98222,566.797691 L155.483296,564.286169 C157.381277,567.694095 160.493328,570.157879 164.244225,571.224016 C167.992472,572.290153 171.939529,571.831343 175.343169,569.9298 C182.373119,566.010023 184.904643,557.093723 180.986745,550.063053 L185.485171,547.551531 C190.786792,557.069854 187.364595,569.126219 177.853487,574.430384 C174.871325,576.095891 171.58432,576.944558 168.262854,576.944558" id="Fill-4"></path>
                        <path d="M626.322927,456.595722 C618.110716,449.132763 617.495728,436.376248 624.952458,428.160097 C632.411839,419.943947 645.162238,419.333968 653.37445,426.788971 L649.846221,430.676923 C643.778515,425.165897 634.354884,425.614098 628.838547,431.690019 C623.327511,437.763287 623.7808,447.194091 629.851156,452.710422 L626.322927,456.595722" id="Fill-5"></path>
                        <path d="M195.240154,30.0746115 C192.634407,30.0746115 190.147947,29.1331223 188.183696,27.3880523 C186.055095,25.4971177 184.788008,22.892773 184.618356,20.0470889 C184.448704,17.2067089 185.395043,14.4697602 187.285071,12.3374861 C189.175099,10.2078642 191.780846,8.94282098 194.622515,8.77043564 L194.786865,11.5471656 C192.687423,11.6718135 190.762935,12.6106506 189.365957,14.1833353 C187.96898,15.7586721 187.269166,17.7822108 187.393754,19.8826598 C187.520993,21.985761 188.454079,23.9111726 190.02866,25.3088199 C191.600591,26.7038151 193.623159,27.4039648 195.725252,27.2793169 L195.889602,30.0560469 L195.240154,30.0746115" id="Fill-6"></path>
                        <path d="M716.089978,388.978236 L713.892456,385.962818 C716.169502,384.299963 717.664559,381.849439 718.099292,379.059448 C718.534025,376.27211 717.860719,373.479468 716.19601,371.198677 C712.76056,366.496535 706.138835,365.459571 701.436297,368.894018 L699.238775,365.881252 C705.60072,361.234804 714.56046,362.635104 719.207331,368.997449 C721.455219,372.084472 722.372399,375.861037 721.781268,379.63495 C721.195439,383.408863 719.172871,386.726618 716.089978,388.978236" id="Fill-7"></path>
                        <path d="M409.971718,463.016413 L406.933889,458.290402 C414.313746,453.540523 416.455601,443.669474 411.71065,436.286077 C406.960397,428.897376 397.096731,426.751842 389.714223,431.507025 L386.679045,426.778362 C396.661998,420.360324 410.01148,423.256397 416.434394,433.244139 C422.854658,443.237184 419.957322,456.590418 409.971718,463.016413" id="Fill-8"></path>
                        <path d="M9.30699605,70.9803264 C5.65682984,70.9803264 2.08353714,69.1663023 0,65.8511996 L2.4228409,64.3289044 C3.57594351,66.1614932 5.37584392,67.4344926 7.49119078,67.9171716 C9.59858522,68.3998505 11.7775515,68.0259069 13.6092617,66.8749033 C17.3946192,64.4906814 18.5371186,59.47029 16.1566907,55.6804646 L18.5795316,54.1581694 C21.8002664,59.2819921 20.2548439,66.0739745 15.1334778,69.2989064 C13.3229741,70.4366496 11.3030564,70.9803264 9.30699605,70.9803264" id="Fill-9"></path>
                        <path d="M688.545405,132.707538 C686.170279,129.731902 685.091399,126.008379 685.512878,122.22651 C685.937007,118.439336 687.805829,115.044671 690.777387,112.665754 C696.916665,107.762054 705.900262,108.756584 710.809563,114.898807 L707.906926,117.219379 C704.277966,112.681666 697.640336,111.941735 693.099498,115.572436 C690.901976,117.330766 689.520903,119.836984 689.208108,122.637582 C688.897963,125.435529 689.693206,128.185738 691.450693,130.381662 L688.545405,132.707538" id="Fill-10"></path>
                        <path d="M299.560155,454.829435 C289.993379,446.928883 288.633513,432.719026 296.524976,423.150314 C300.347445,418.514475 305.747146,415.644922 311.727375,415.072072 C317.715556,414.504526 323.555292,416.29203 328.188909,420.11368 L324.453917,424.640784 C321.02907,421.813665 316.71355,420.484972 312.286696,420.914609 C307.867795,421.338942 303.875674,423.460608 301.04991,426.887098 C295.218127,433.960201 296.222784,444.465098 303.295147,450.302331 L299.560155,454.829435" id="Fill-11"></path>
                        <path d="M610.20865,21.2643946 C608.347781,21.2643946 606.457753,21.6887278 604.68436,22.5877836 C598.643163,25.6509385 596.228275,33.029031 599.28731,39.067822 C601.44507,43.3350222 605.752637,45.7908503 610.227205,45.7908503 C612.090725,45.7908503 613.980753,45.3665171 615.756796,44.4648092 C621.795343,41.4096106 624.212882,34.031518 621.153847,27.9874228 C618.996087,23.7228748 614.683218,21.2643946 610.20865,21.2643946 Z M610.20865,25.0462637 L610.20865,25.0462637 C613.429385,25.0462637 616.329371,26.8284629 617.782016,29.6980158 C618.802578,31.7189024 618.980182,34.0182576 618.275066,36.1664442 C617.569951,38.322587 616.069592,40.067657 614.049674,41.0940128 C612.846206,41.6986875 611.560563,42.0116332 610.227205,42.0116332 C607.011772,42.0116332 604.111785,40.229434 602.659141,37.3598811 C600.549096,33.1881559 602.221757,28.0775936 606.394133,25.9638842 C607.5923,25.3539053 608.877943,25.0462637 610.20865,25.0462637 L610.20865,25.0462637 Z" id="Fill-12"></path>
                        <path d="M126.772367,260.140085 C121.796795,260.140085 117.521038,263.90339 116.988225,268.96091 C116.4183,274.37381 120.344151,279.221816 125.751804,279.792014 C126.101711,279.829143 126.448968,279.847708 126.793573,279.847708 C131.771795,279.847708 136.044902,276.084403 136.577715,271.026882 C137.147639,265.613983 133.22709,260.765977 127.814135,260.195779 C127.464228,260.155998 127.116972,260.140085 126.772367,260.140085 Z M126.772367,263.179371 L126.772367,263.179371 C127.01094,263.179371 127.252163,263.192632 127.496038,263.216501 C129.306542,263.40745 130.931488,264.293246 132.079289,265.706806 C133.221789,267.120365 133.746649,268.89726 133.558442,270.70598 C133.189979,274.185512 130.284691,276.808421 126.793573,276.808421 C126.555,276.808421 126.313776,276.795161 126.069902,276.771292 C122.33491,276.378784 119.617829,273.015944 120.010149,269.281812 C120.375961,265.799629 123.2839,263.179371 126.772367,263.179371 L126.772367,263.179371 Z" id="Fill-13"></path>
                        <path d="M665.387923,208.342269 C664.438933,208.342269 663.471387,208.474873 662.511794,208.755994 C657.045822,210.341939 653.901961,216.06248 655.487146,221.531073 C656.796646,226.039613 660.910704,228.970164 665.379971,228.970164 C666.331612,228.970164 667.299158,228.83756 668.258751,228.556439 C673.722072,226.970494 676.868584,221.247301 675.280749,215.781359 C673.973899,211.275472 669.85719,208.342269 665.387923,208.342269 Z M665.390574,211.524767 C668.537086,211.524767 671.349596,213.638477 672.229666,216.667155 C673.32445,220.44372 671.142833,224.408583 667.37073,225.50124 C666.721281,225.69219 666.050626,225.787665 665.379971,225.787665 C662.233459,225.787665 659.420949,223.673956 658.54088,220.645278 C657.446095,216.868713 659.625061,212.90385 663.399815,211.811192 C664.049264,211.620242 664.719919,211.524767 665.390574,211.524767 L665.390574,211.524767 Z" id="Fill-14"></path>
                        <path d="M307.581507,12.8519901 C301.717914,12.8519901 296.11145,16.2148302 293.524259,21.9008943 C289.99603,29.6635388 293.423528,38.8158742 301.185101,42.3457956 C303.258035,43.2899368 305.426398,43.7354866 307.562952,43.7354866 C313.429196,43.7354866 319.03566,40.3726464 321.6202,34.6865823 C325.148429,26.92659 321.720931,17.7689504 313.962009,14.2416811 C311.891725,13.2975399 309.718061,12.8519901 307.581507,12.8519901 Z M307.581507,17.6124775 L307.581507,17.6124775 C309.105724,17.6124775 310.587527,17.9386836 311.992456,18.5778354 C314.5876,19.758012 316.565105,21.8770256 317.567111,24.5503244 C318.566467,27.218319 318.468387,30.1196969 317.288776,32.7134332 C315.560447,36.516519 311.74328,38.9749992 307.562952,38.9749992 C306.041386,38.9749992 304.556933,38.6514451 303.157305,38.0122933 C297.800016,35.5776819 295.422239,29.2312494 297.858334,23.8766955 C299.586663,20.0709577 303.40383,17.6124775 307.581507,17.6124775 L307.581507,17.6124775 Z" id="Fill-15"></path>
                        <path d="M512.412294,337.151246 C506.999339,337.151246 502.209324,341.041851 501.255032,346.558182 C500.189406,352.729577 504.32202,358.595983 510.490456,359.664772 C511.145207,359.776159 511.794655,359.829201 512.436151,359.829201 C517.846456,359.829201 522.636471,355.941248 523.590762,350.424918 C524.659039,344.253522 520.523774,338.387117 514.355338,337.318328 C513.703239,337.204288 513.05379,337.151246 512.412294,337.151246 Z M512.412294,340.649343 L512.412294,340.649343 C512.860281,340.649343 513.31357,340.686472 513.758906,340.763382 C518.018758,341.500661 520.881634,345.568955 520.147359,349.828199 C519.492609,353.596808 516.250668,356.333757 512.436151,356.333757 C511.988164,356.333757 511.534876,356.291323 511.089539,356.217065 C506.829687,355.479786 503.964161,351.414144 504.701086,347.1549 C505.353185,343.38364 508.595127,340.649343 512.412294,340.649343 L512.412294,340.649343 Z" id="Fill-16"></path>
                        <path d="M120.023403,353.252037 C116.05779,353.252037 112.13194,355.01302 109.497034,358.37586 C104.945592,364.186572 105.960852,372.588368 111.771429,377.141993 C114.218128,379.059448 117.120765,379.990329 120.004847,379.990329 C123.97046,379.990329 127.89631,378.231999 130.531216,374.866507 C135.082658,369.058447 134.064747,360.653998 128.256821,356.100373 C125.810122,354.18557 122.907485,353.252037 120.023403,353.252037 Z M120.023403,357.378677 L120.023403,357.378677 C122.101638,357.378677 124.071191,358.05761 125.714693,359.346522 C127.657737,360.868817 128.887713,363.056785 129.187255,365.509961 C129.484146,367.963137 128.808189,370.381836 127.286624,372.32316 C125.523835,374.574778 122.870373,375.866342 120.004847,375.866342 C117.926612,375.866342 115.957059,375.184756 114.313557,373.895845 C110.305531,370.753127 109.600415,364.929155 112.741626,360.919207 C114.504415,358.667589 117.160527,357.378677 120.023403,357.378677 L120.023403,357.378677 Z" id="Fill-17"></path>
                        <path d="M33.3206894,667.876498 C31.3564387,667.876498 29.3736324,668.494433 27.6903676,669.778041 C23.5948652,672.888933 22.7969712,678.739426 25.9143245,682.834241 C27.7460346,685.247636 30.5240842,686.515331 33.3365942,686.515331 C35.3008449,686.515331 37.2810004,685.894744 38.966916,684.611136 C43.0597675,681.500244 43.8576615,675.649751 40.7429591,671.554936 C38.9112489,669.141541 36.1331994,667.876498 33.3206894,667.876498 Z M33.3206894,670.751355 L33.3206894,670.751355 C35.3565119,670.751355 37.2253334,671.676932 38.4553095,673.294702 C39.4970781,674.663176 39.9424143,676.357857 39.7091429,678.065797 C39.4785224,679.768434 38.5958025,681.280121 37.2253334,682.325041 C36.0960881,683.184316 34.7494763,683.640474 33.3365942,683.640474 C31.3034225,683.640474 29.4292994,682.714897 28.2019741,681.094475 C27.1575547,679.726001 26.7122185,678.03132 26.9454898,676.32338 C27.1761104,674.620743 28.0588303,673.106404 29.4292994,672.066788 C30.5611955,671.204861 31.9051565,670.751355 33.3206894,670.751355 L33.3206894,670.751355 Z" id="Fill-18"></path>
                        <path d="M344.949985,154.253054 C343.033448,154.253054 341.082452,154.584564 339.176519,155.276757 C330.420892,158.469864 325.909212,168.15792 329.100788,176.9204 C331.595201,183.77338 338.065829,188.024668 344.955286,188.024668 C346.871822,188.024668 348.82547,187.693157 350.728752,186.998312 C359.484379,183.807857 363.996059,174.117149 360.804483,165.357322 C358.307419,158.504341 351.839441,154.253054 344.949985,154.253054 Z M344.952635,159.461743 L344.952635,159.461743 C349.835429,159.461743 354.241076,162.548767 355.913737,167.142173 C358.119212,173.18892 354.991255,179.903992 348.947407,182.107872 C347.656462,182.577291 346.312501,182.815978 344.955286,182.815978 C340.069842,182.815978 335.664195,179.728955 333.988883,175.1382 C332.923257,172.204998 333.058448,169.035759 334.375901,166.20864 C335.693354,163.384172 338.028718,161.24129 340.957864,160.169849 C342.248809,159.697778 343.59277,159.461743 344.952635,159.461743 L344.952635,159.461743 Z" id="Fill-19"></path>
                        <path d="M348.610754,644.737081 C345.061319,644.737081 341.649725,646.71023 339.974413,650.1102 C337.628446,654.875991 339.587395,660.64427 344.353552,662.996667 C345.72137,663.670296 347.168713,663.988545 348.594849,663.988545 C352.144285,663.988545 355.558529,662.015396 357.233841,658.615427 C359.579808,653.849635 357.618208,648.078705 352.854702,645.731612 C351.486884,645.055331 350.03689,644.737081 348.610754,644.737081 Z M348.610754,647.704761 L348.610754,647.704761 C349.631316,647.704761 350.617418,647.938144 351.545201,648.394302 C353.138339,649.179319 354.328553,650.539837 354.901128,652.221257 C355.471052,653.905329 355.357067,655.708745 354.572427,657.299994 C353.440531,659.596697 351.152881,661.020866 348.594849,661.020866 C347.574287,661.020866 346.588186,660.790134 345.665703,660.333976 C342.376047,658.710902 341.016182,654.711562 342.635827,651.42298 C343.765072,649.128929 346.055373,647.704761 348.610754,647.704761 L348.610754,647.704761 Z" id="Fill-20"></path>
                        <path d="M260.256586,106.99295 L234.392626,109.371868 L251.813754,128.644548 L277.675062,126.262979 L260.256586,106.99295 Z M258.647544,111.11959 L269.42839,123.043351 L253.422796,124.517909 L242.641949,112.591495 L258.647544,111.11959 L258.647544,111.11959 Z" id="Fill-21"></path>
                        <path d="M17.145443,485.779234 L12.7450974,511.393043 L30.5850528,530.286476 L34.9880492,504.670015 L17.145443,485.779234 Z M19.7061261,494.260593 L30.7467523,505.950971 L28.0243698,521.805118 L16.9863944,510.109435 L19.7061261,494.260593 L19.7061261,494.260593 Z" id="Fill-22"></path>
                        <path d="M601.728707,648.463257 L608.787815,686.42516 L643.375592,703.549655 L636.316483,665.593055 L601.728707,648.463257 Z M609.667884,658.96285 L631.070529,669.565874 L635.439065,693.052714 L614.03377,682.454993 L609.667884,658.96285 L609.667884,658.96285 Z" id="Fill-23"></path>
                        <path d="M123.758395,98.0315643 L129.767783,117.14512 L148.652157,123.799194 L142.64277,104.690943 L123.758395,98.0315643 Z M128.503346,102.94322 L140.19077,107.064556 L143.907206,118.89019 L132.219782,114.768855 L128.503346,102.94322 L128.503346,102.94322 Z" id="Fill-24"></path>
                        <path d="M356.703679,498.599399 L340.059239,514.482719 L342.773669,537.333059 L359.415458,521.452391 L356.703679,498.599399 Z M354.047567,505.982796 L355.728181,520.123698 L345.42713,529.952314 L343.749167,515.811412 L354.047567,505.982796 L354.047567,505.982796 Z" id="Fill-25"></path>
                        <path d="M203.07595,352.716317 L205.936175,373.376036 L224.173752,383.480469 L221.313527,362.823402 L203.07595,352.716317 Z M207.09723,358.58007 L218.38173,364.83368 L220.152472,377.616716 L208.867971,371.365758 L207.09723,358.58007 L207.09723,358.58007 Z" id="Fill-26"></path>
                        <path d="M259.25723,680.839875 L240.166092,684.499749 L231.638434,701.974318 L250.726921,698.314445 L259.25723,680.839875 Z M253.99272,684.868388 L248.714956,695.680927 L236.900293,697.948457 L242.178057,687.135918 L253.99272,684.868388 L253.99272,684.868388 Z" id="Fill-27"></path>
                        <path d="M392.094651,277.275188 L353.321244,279.452547 L331.791361,311.792037 L370.570069,309.61733 L392.094651,277.275188 Z M380.600736,283.852352 L367.283064,303.867616 L343.285276,305.214873 L356.60825,285.199609 L380.600736,283.852352 L380.600736,283.852352 Z" id="Fill-28"></path>
                        <path d="M70.6944681,0 L64.8017162,36.2194858 L90.2282915,62.668701 L96.1183927,26.4492152 L70.6944681,0 Z M74.418857,11.944978 L90.151418,28.3083248 L86.5065534,50.723723 L70.7713416,34.3577241 L74.418857,11.944978 L74.418857,11.944978 Z" id="Fill-29"></path>
                        <path d="M28.6340562,168.507995 C28.2496887,168.507995 27.8573687,168.425781 27.4862552,168.250743 C26.1263894,167.616896 25.5405602,165.996473 26.174104,164.638607 C27.6532563,161.469369 30.2430982,159.175318 33.4691348,158.172831 C36.6951713,157.172996 40.1253202,157.597329 43.1260378,159.363616 C44.7986993,160.344886 46.6807748,160.580922 48.4223574,160.039897 C50.1718924,159.49622 51.5847745,158.231177 52.4065257,156.472846 C53.8856781,153.30626 56.4781708,151.012209 59.7042073,150.009722 C62.9249422,149.007235 66.357742,149.428916 69.3611104,151.197855 C70.654706,151.961655 71.0867881,153.62451 70.3260055,154.921378 C69.5652228,156.218246 67.8978629,156.64258 66.6069182,155.886736 C64.9369075,154.902814 63.0574828,154.658822 61.3159002,155.202499 C59.569016,155.746176 58.1508323,157.016523 57.3264302,158.777506 C55.8499287,161.936136 53.2627376,164.227535 50.0367011,165.230022 C46.8133154,166.235161 43.3831664,165.816132 40.3744964,164.049845 C38.6991841,163.068575 36.8224102,162.827235 35.0808276,163.362956 C33.3339434,163.906633 31.9184105,165.17698 31.0966593,166.937963 C30.6354182,167.927189 29.6572691,168.507995 28.6340562,168.507995" id="Fill-30"></path>
                        <path d="M562.016913,285.056397 L561.947992,285.053745 C560.969843,285.016616 560.206409,284.19447 560.243521,283.215852 C560.293886,281.953461 559.851201,280.799805 559.00029,279.964399 C558.14938,279.128993 556.993627,278.70466 555.715936,278.778919 C553.446842,278.890306 551.328845,278.129158 549.754263,276.585647 C548.179682,275.042135 547.35793,272.939034 547.440105,270.663547 C547.490471,269.401156 547.047785,268.244848 546.199526,267.412094 C545.345965,266.571384 544.176958,266.162964 542.912521,266.226614 C541.939673,266.216005 541.096716,265.531768 541.043699,264.555802 C540.988032,263.577184 541.735561,262.739126 542.71371,262.683432 C544.993407,262.577349 547.108754,263.333192 548.683336,264.879356 C550.252615,266.422868 551.071716,268.523317 550.984239,270.796151 C550.939175,272.058542 551.381861,273.21485 552.235422,274.052908 C553.086332,274.885662 554.244736,275.294083 555.514474,275.235737 C557.815378,275.134958 559.912169,275.885497 561.486751,277.434313 C563.056031,278.977825 563.875131,281.078274 563.787654,283.351108 C563.750543,284.305858 562.963252,285.056397 562.016913,285.056397" id="Fill-31"></path>
                        <path d="M523.752462,624.772207 C522.872393,624.772207 522.156674,624.064101 522.14342,623.18361 C522.135467,622.295162 522.845885,621.56584 523.733906,621.555231 C524.876405,621.541971 525.902269,621.088465 526.617988,620.282232 C527.336358,619.470695 527.665058,618.393949 527.54047,617.250902 C527.320453,615.19819 527.930139,613.243606 529.252894,611.747831 C530.578299,610.252057 532.441819,609.411347 534.5068,609.382174 C535.651951,609.368914 536.677814,608.915408 537.393533,608.106523 C538.111903,607.297638 538.437953,606.223544 538.316015,605.080497 C538.220586,604.197354 538.859431,603.404381 539.739501,603.308906 C540.62222,603.192214 541.414813,603.849931 541.510242,604.733074 C541.73291,606.788438 541.125875,608.743022 539.800469,610.238797 C538.475064,611.734571 536.611544,612.572629 534.549213,612.59915 C533.404063,612.615062 532.375549,613.07122 531.65983,613.880105 C530.94146,614.691643 530.61541,615.763084 530.737348,616.906131 C530.960016,618.958843 530.350329,620.918731 529.022273,622.411854 C527.699519,623.91028 525.833348,624.745686 523.773668,624.772207 L523.752462,624.772207" id="Fill-32"></path>
                        <path d="M109.494383,487.442089 C108.937713,487.442089 108.375741,487.256444 107.906547,486.879848 C105.377674,484.835093 103.882617,481.9788 103.699711,478.838735 C103.516805,475.701322 104.664606,472.693861 106.931049,470.373289 C108.187533,469.084377 108.826379,467.434782 108.725648,465.734797 C108.624917,464.03216 107.795213,462.472736 106.392935,461.337645 C103.864061,459.29289 102.369004,456.436597 102.186098,453.29388 C102.000541,450.156467 103.148342,447.149005 105.417436,444.828434 C106.398236,443.825946 107.999326,443.812686 108.996031,444.791304 C109.995386,445.767271 110.011291,447.366476 109.035793,448.366311 C107.774007,449.657875 107.135162,451.302166 107.233242,452.996847 C107.333972,454.699483 108.163676,456.264212 109.571257,457.399303 C112.097479,459.441406 113.589885,462.295047 113.775442,465.435112 C113.960999,468.572525 112.815849,471.582638 110.549406,473.908514 C109.28762,475.200078 108.648774,476.844369 108.749505,478.541702 C108.847585,480.241686 109.677289,481.806415 111.08752,482.941506 C112.171702,483.819345 112.341354,485.413247 111.463935,486.5006 C110.965583,487.121187 110.233959,487.442089 109.494383,487.442089" id="Fill-33"></path>
                        <path d="M136.903765,666.632671 C133.889793,666.632671 131.03487,665.638141 128.702157,663.741902 C125.831329,661.410722 124.132159,658.026665 123.917444,654.210319 C123.795506,652.096609 122.873024,650.232195 121.316998,648.972456 C119.760973,647.707413 117.749007,647.184953 115.649565,647.508507 C111.864208,648.073401 108.195486,647.115999 105.322007,644.776862 C102.45383,642.445682 100.757311,639.061625 100.545246,635.247931 C100.452468,633.606292 101.708952,632.200689 103.349804,632.107866 C105.00391,632.030956 106.398236,633.274782 106.488364,634.916421 C106.604999,637.035435 107.524831,638.894544 109.075555,640.156935 C110.634232,641.421979 112.654149,641.941787 114.756242,641.618233 C118.533647,641.055991 122.194417,642.016045 125.065245,644.347225 C127.938723,646.678405 129.643194,650.05981 129.863212,653.876156 C129.982498,655.997822 130.90233,657.856932 132.453054,659.119323 C134.01173,660.384366 136.021045,660.909478 138.128439,660.583272 C139.753386,660.328672 141.26965,661.455807 141.518826,663.078881 C141.765351,664.704608 140.646709,666.224251 139.021762,666.473546 C138.311345,666.57963 137.603579,666.632671 136.903765,666.632671" id="Fill-34"></path>
                        <path d="M13.2063385,260.564418 L12.890892,260.559114 C11.7802023,260.521985 10.9080857,259.591104 10.9425462,258.479882 C10.9770067,257.366007 11.9021396,256.514689 13.0207817,256.527949 C14.4813784,256.594251 15.7670215,256.066487 16.7080593,255.093173 C17.6517478,254.119859 18.1209413,252.793818 18.0308138,251.356389 C17.8717651,248.770609 18.7438818,246.354562 20.4881152,244.559103 C22.2296978,242.760991 24.6260306,241.838066 27.1920152,241.896412 C28.6393578,241.930889 29.938255,241.43495 30.8792928,240.461636 C31.8256322,239.48567 32.2974765,238.156976 32.2073489,236.719548 C32.135777,235.608325 32.9813856,234.650924 34.0920752,234.58197 C35.2080665,234.502407 36.1570567,235.35903 36.2259778,236.470252 C36.3876772,239.05338 35.5155605,241.469427 33.7713272,243.267539 C32.0270938,245.062998 29.6254594,246.001835 27.0647763,245.924925 C25.6359894,245.853319 24.3211873,246.389039 23.3801496,247.362353 C22.4338102,248.33832 21.9619659,249.667013 22.0520935,251.104441 C22.2137929,253.687569 21.344327,256.100964 19.6000936,257.901728 C17.9274321,259.622929 15.6689415,260.564418 13.2063385,260.564418" id="Fill-35"></path>
                        <path d="M257.820491,279.471112 C256.240608,279.471112 254.695185,279.0733 253.290255,278.293587 C250.95224,276.994067 249.314039,274.798143 248.680496,272.10628 C248.327938,270.613158 247.434615,269.401156 246.164876,268.695702 C244.897789,267.995553 243.39743,267.876209 241.939484,268.369496 C239.312531,269.257944 236.579545,269.029865 234.236229,267.72504 C231.895563,266.42552 230.257362,264.226944 229.623818,261.53508 C229.350785,260.373468 230.069154,259.214509 231.227559,258.941344 C232.393915,258.678788 233.547018,259.389546 233.817401,260.545854 C234.169958,262.041628 235.060631,263.250978 236.327718,263.956431 C237.594806,264.659233 239.097815,264.781229 240.558412,264.282638 C243.177413,263.396842 245.910399,263.627573 248.253715,264.924441 C250.597032,266.226614 252.237884,268.42519 252.874078,271.114401 C253.226636,272.612828 254.117308,273.822177 255.381745,274.524979 C256.654134,275.230433 258.157144,275.349776 259.615089,274.851185 C260.746986,274.479893 261.966358,275.081916 262.345424,276.206399 C262.727141,277.333534 262.120105,278.558796 260.993511,278.938043 C259.941139,279.293422 258.875513,279.471112 257.820491,279.471112" id="Fill-36"></path>
                        <path d="M32.3133813,375.253711 C31.6400754,375.253711 30.9667695,374.993807 30.4578139,374.473998 C28.1224498,372.087125 26.9375374,368.997449 27.1230942,365.769865 C27.3113017,362.547585 28.8381686,359.617034 31.4280106,357.519237 C32.8647499,356.354973 33.7130093,354.747811 33.8110893,353.002741 C33.9118201,351.257671 33.2517683,349.565643 31.9581727,348.242254 C29.6201577,345.85538 28.4352454,342.763052 28.6208021,339.535468 C28.8090097,336.310536 30.3385274,333.382638 32.9283694,331.287493 C34.0443607,330.385785 35.67726,330.55817 36.5811864,331.672045 C37.482462,332.788571 37.3101593,334.422254 36.1941681,335.326614 C34.7574287,336.49353 33.9091693,338.092736 33.8084385,339.835154 C33.7077077,341.585528 34.3677595,343.277556 35.6666567,344.606249 C37.9993701,346.987819 39.1816316,350.074843 38.9987257,353.299775 C38.8131689,356.522054 37.286302,359.457909 34.6991109,361.558358 C33.2570699,362.725275 32.4088105,364.327132 32.3080797,366.06955 C32.2073489,367.81462 32.8700516,369.509301 34.1689488,370.837994 C35.173606,371.86435 35.1577011,373.508641 34.1318374,374.51378 C33.6255326,375.007067 32.9707824,375.253711 32.3133813,375.253711" id="Fill-37"></path>
                        <path d="M411.045296,115.442484 C409.730494,115.442484 408.399787,115.203796 407.098239,114.723769 C405.807295,114.249047 405.144592,112.81427 405.621738,111.520054 C406.098884,110.225838 407.532972,109.562817 408.823917,110.042844 C410.491277,110.655475 412.227558,110.567957 413.714663,109.796201 C415.207069,109.019141 416.280647,107.64271 416.736587,105.913552 C417.555687,102.818573 419.522589,100.325615 422.271479,98.893491 C425.025671,97.4587146 428.190739,97.2757209 431.196759,98.3789871 C432.866769,98.9969222 434.605701,98.9120556 436.092806,98.1402997 C437.582561,97.3632396 438.653489,95.9841569 439.109428,94.2603035 C439.461986,92.9289583 440.832455,92.1333336 442.15786,92.4834085 C443.491218,92.8361354 444.283811,94.2019577 443.933904,95.5333029 C443.114803,98.636239 441.145251,101.1345 438.393709,102.566625 C435.642168,103.993445 432.474449,104.176439 429.473732,103.065216 C427.803721,102.455237 426.062138,102.545408 424.575034,103.319816 C423.085278,104.096876 422.017001,105.470655 421.561062,107.194508 C420.739311,110.297444 418.769758,112.793053 416.015566,114.225178 C414.45954,115.036715 412.765672,115.442484 411.045296,115.442484" id="Fill-38"></path>
                        <path d="M548.100157,408.858243 C547.744949,408.858243 547.387089,408.730943 547.103452,408.468387 L537.48101,399.639606 C536.881927,399.087973 536.839514,398.157092 537.390882,397.555069 C537.942251,396.953047 538.875336,396.910613 539.47707,397.464899 L549.099513,406.29368 C549.698596,406.845313 549.741009,407.778846 549.18964,408.378217 C548.898051,408.696466 548.50043,408.858243 548.100157,408.858243" id="Fill-39"></path>
                        <path d="M233.244825,479.271024 C232.815394,479.271024 232.385963,479.090683 232.078469,478.74326 L222.967633,468.42666 C222.397708,467.782204 222.458677,466.79563 223.102824,466.230736 C223.746971,465.663191 224.727771,465.721537 225.300346,466.363341 L234.411182,476.682592 C234.978456,477.327048 234.917487,478.310971 234.275991,478.878516 C233.9791,479.141072 233.610637,479.271024 233.244825,479.271024" id="Fill-40"></path>
                        <path d="M169.19594,192.252087 C168.350331,192.252087 167.589548,191.671281 167.390738,190.814658 C167.160117,189.817475 167.780407,188.822944 168.779762,188.592213 L184.748245,184.897863 C185.731696,184.656523 186.739004,185.287719 186.972276,186.287554 C187.200245,187.284737 186.579956,188.279268 185.583251,188.509999 L169.612117,192.201697 L169.19594,192.252087" id="Fill-41"></path>
                        <path d="M500.767283,51.4132644 C499.97204,51.4132644 499.25367,50.8722396 499.05751,50.0686588 C498.832191,49.1218654 499.412719,48.17242 500.359058,47.946993 L515.481933,44.3109884 C516.42297,44.0776052 517.374611,44.6637154 517.602581,45.6078566 C517.8279,46.5519978 517.247373,47.5040953 516.301033,47.7295223 L501.178159,51.3655269 L500.767283,51.4132644" id="Fill-42"></path>
                        <path d="M701.743791,641.379545 C701.017469,641.379545 700.354766,640.880954 700.177162,640.141023 L696.866299,626.257373 C696.659536,625.390142 697.195,624.520259 698.061815,624.313397 C698.918027,624.109186 699.798096,624.639603 700.004859,625.506834 L703.315722,639.390484 C703.519834,640.257714 702.987021,641.127597 702.120206,641.33446 L701.743791,641.379545" id="Fill-43"></path>
                        <path d="M441.17441,657.082524 C440.575326,657.082524 440.005402,656.740405 439.745623,656.156947 L434.141809,643.533036 C433.791902,642.742715 434.147111,641.822443 434.937052,641.472368 C435.724343,641.122293 436.646825,641.477672 436.994081,642.265341 L442.600546,654.8866 C442.947802,655.67692 442.595244,656.599845 441.805303,656.949919 L441.17441,657.082524" id="Fill-44"></path>
                        <path d="M435.02718,558.488718 C433.65406,558.488718 432.506259,557.417277 432.424084,556.030238 C432.339258,554.590157 433.436694,553.354287 434.876084,553.26942 L457.922231,551.916858 C459.374875,551.853208 460.596899,552.932606 460.681725,554.372686 C460.766551,555.812767 459.669115,557.048637 458.229725,557.133504 L435.180927,558.486066 L435.02718,558.488718" id="Fill-45"></path>
                        <path d="M284.087373,589.937108 C283.48829,589.937108 282.936921,589.547252 282.756666,588.942577 L279.294707,577.180593 C279.077341,576.445966 279.49882,575.67421 280.233094,575.459392 C280.959416,575.236617 281.736104,575.663602 281.95347,576.398229 L285.415429,588.160213 C285.632796,588.89484 285.211317,589.666596 284.477042,589.881414 L284.087373,589.937108" id="Fill-46"></path>
                        <path d="M715.37691,506.730683 L715.103876,506.712118 L695.016034,504.304028 C693.7622,504.152859 692.866226,503.015116 693.014672,501.760681 C693.168419,500.503594 694.31887,499.599234 695.55945,499.761011 L715.647293,502.169102 C716.901126,502.32027 717.7971,503.460666 717.646004,504.712448 C717.508162,505.876712 716.519409,506.730683 715.37691,506.730683" id="Fill-47"></path>
                        <polyline id="Fill-48" points="616.080195 350.024453 611.873359 345.839468 633.122257 324.455729 654.495743 345.717472 650.310113 349.928978 633.146114 332.857525 616.080195 350.024453"></polyline>
                        <polyline id="Fill-49" points="524.083813 517.110932 520.266646 514.930921 529.165417 499.368503 513.613111 490.468115 515.794728 486.651769 535.164201 497.73482 524.083813 517.110932"></polyline>
                        <polyline id="Fill-50" points="400.288307 724.524972 388.749328 708.384401 391.924999 706.111566 401.192233 719.072292 414.144094 709.795308 416.418489 712.977807 400.288307 724.524972"></polyline>
                        <polyline id="Fill-51" points="597.869126 137.075518 576.686499 133.073526 580.686572 111.880737 584.861599 112.668406 581.646165 129.686817 598.656417 132.90114 597.869126 137.075518"></polyline>
                        <polyline id="Fill-52" points="421.730714 26.282134 401.038486 8.92956057 404.455381 4.85331032 421.070662 18.7873499 434.998021 2.16144695 439.072317 5.57998083 421.730714 26.282134"></polyline>
                        <polyline id="Fill-53" points="439.019301 246.068137 436.376442 230.882315 421.197901 233.531745 420.548452 229.808222 439.448732 226.511684 442.741039 245.421029 439.019301 246.068137"></polyline>
                        <polyline id="Fill-54" points="705.656387 35.2673883 689.099424 22.1342776 691.683965 18.8722165 704.980431 29.4168951 715.520054 16.1140511 718.780551 18.6971791 705.656387 35.2673883"></polyline>
                        <polyline id="Fill-55" points="526.217716 713.916644 518.145997 698.773255 503.009869 706.848845 501.029713 703.13593 519.879627 693.081887 529.92885 711.938191 526.217716 713.916644"></polyline>
                        <polyline id="Fill-56" points="619.990141 547.737177 599.258151 527.172932 603.305939 523.086073 619.95303 539.600589 636.456976 522.940209 640.544526 526.99259 619.990141 547.737177"></polyline>
                    </g>
                    <g opacity="0.167912138" style="mix-blend-mode: overlay;">
                        <path d="M512.473193,196.403063 L512.004712,192.802611 C514.725097,192.445762 517.147358,191.052983 518.821646,188.874603 C520.495934,186.69356 521.21995,183.993221 520.865927,181.268915 C520.509243,178.544608 519.114446,176.118564 516.937073,174.448827 C514.759701,172.773765 512.063272,172.044088 509.337563,172.4036 L508.86642,168.803148 C512.550386,168.315809 516.20241,169.30114 519.14905,171.567401 C522.093029,173.833661 523.980263,177.111884 524.462053,180.797554 C524.943843,184.483223 523.964292,188.136937 521.699079,191.08494 C519.433865,194.032943 516.157159,195.92105 512.473193,196.403063" id="Fill-3"></path>
                        <path d="M168.962007,579.331914 C167.141319,579.331914 165.312645,579.078924 163.513251,578.567617 C158.415856,577.118915 154.188878,573.774116 151.60957,569.143061 L156.129349,566.621147 C158.035215,570.043174 161.160198,572.517153 164.926681,573.587702 C168.690501,574.658251 172.653959,574.197542 176.071742,572.28813 C183.130902,568.352133 185.672945,559.398938 181.738768,552.339176 L186.255885,549.817262 C191.579535,559.374971 188.143119,571.481224 178.59249,576.807337 C175.597937,578.479736 172.297274,579.331914 168.962007,579.331914" id="Fill-4"></path>
                        <path d="M628.925377,458.485084 C620.679043,450.991243 620.0615,438.181943 627.549214,429.931794 C635.039589,421.681646 647.842968,421.069143 656.089302,428.554994 L652.546413,432.459035 C646.453495,426.925204 636.990707,427.37526 631.451449,433.476322 C625.917515,439.574721 626.372687,449.044549 632.468266,454.583706 L628.925377,458.485084" id="Fill-5"></path>
                        <path d="M196.051401,30.1990582 C193.434827,30.1990582 190.938035,29.2536732 188.965623,27.5013822 C186.828177,25.602623 185.555825,22.9875018 185.385468,20.1300424 C185.215111,17.2779091 186.165383,14.529635 188.063264,12.3885378 C189.961145,10.2501036 192.577719,8.97982576 195.431196,8.8067271 L195.596229,11.594947 C193.488063,11.7201107 191.555578,12.6628326 190.152797,14.242025 C188.750015,15.8238804 188.047293,17.8557923 188.172399,19.9649329 C188.300166,22.0767365 189.237129,24.0101154 190.818253,25.413546 C192.396715,26.8143136 194.427688,27.5173605 196.538515,27.3921968 L196.703548,30.1804168 L196.051401,30.1990582" id="Fill-6"></path>
                        <path d="M719.065421,390.587801 L716.858768,387.559906 C719.145276,385.89017 720.646545,383.429506 721.083084,380.62797 C721.519624,377.829098 720.84352,375.0249 719.171894,372.734672 C715.722169,368.013073 709.07293,366.971818 704.350852,370.420476 L702.144199,367.395244 C708.532579,362.729569 717.529548,364.135663 722.195727,370.524335 C724.452955,373.624132 725.373946,377.416324 724.780359,381.205854 C724.192096,384.995383 722.161124,388.326866 719.065421,390.587801" id="Fill-7"></path>
                        <path d="M411.675202,464.932343 L408.62475,460.186777 C416.035271,455.417243 418.186026,445.505347 413.421359,438.091399 C408.651368,430.672124 398.746717,428.517711 391.333535,433.292571 L388.285745,428.544342 C398.310178,422.099746 411.715129,425.007803 418.164731,435.036873 C424.611671,445.071269 421.702297,458.479757 411.675202,464.932343" id="Fill-8"></path>
                        <path d="M9.34566778,71.2740381 C5.68033467,71.2740381 2.0921945,69.4525077 0,66.1236873 L2.4329081,64.595093 C3.590802,66.4352649 5.39818122,67.7135319 7.52231761,68.1982081 C9.63846853,68.6828844 11.8264887,68.3073935 13.6658098,67.151627 C17.466896,64.7575394 18.6141426,59.7163739 16.2238237,55.9108665 L18.6567318,54.3822722 C21.8908493,59.5272969 20.3390053,66.347384 15.1963593,69.5856605 C13.3783327,70.7281116 11.350022,71.2740381 9.34566778,71.2740381" id="Fill-9"></path>
                        <path d="M691.406397,133.256673 C689.021402,130.268724 687.938039,126.529793 688.361269,122.732275 C688.787161,118.92943 690.663748,115.520718 693.647654,113.131957 C699.81244,108.207966 708.833366,109.206612 713.763066,115.37425 L710.848367,117.704424 C707.204329,113.147935 700.539119,112.404942 695.979412,116.050666 C693.772759,117.816273 692.385949,120.332861 692.071853,123.145048 C691.76042,125.954573 692.558967,128.716162 694.323757,130.921173 L691.406397,133.256673" id="Fill-10"></path>
                        <path d="M300.804864,456.711488 C291.198338,448.778243 289.832821,434.509588 297.757075,424.901281 C301.595426,420.246259 307.017564,417.364832 313.022641,416.789611 C319.035704,416.219717 324.899705,418.014617 329.552575,421.852081 L325.802063,426.397919 C322.362985,423.559101 318.029534,422.224909 313.584286,422.656324 C309.147024,423.082413 305.138315,425.212858 302.30081,428.653527 C296.444795,435.755898 297.453627,446.304264 304.555376,452.165651 L300.804864,456.711488" id="Fill-11"></path>
                        <path d="M612.744143,21.3523852 C610.875542,21.3523852 608.97766,21.7784742 607.196899,22.6812503 C601.1306,25.7570803 598.705677,33.1657028 601.777424,39.229482 C603.944149,43.5143395 608.269615,45.9803296 612.762776,45.9803296 C614.634039,45.9803296 616.53192,45.5542406 618.315343,44.6488015 C624.37898,41.5809607 626.806565,34.1723381 623.734818,28.1032329 C621.568093,23.8210384 617.237303,21.3523852 612.744143,21.3523852 Z M612.744143,25.1499035 L612.744143,25.1499035 C615.97826,25.1499035 618.890297,26.9394773 620.348977,29.8209042 C621.37378,31.850153 621.552122,34.1590228 620.844076,36.3160984 C620.136031,38.4811632 618.629438,40.2334542 616.601127,41.264057 C615.392659,41.8712338 614.101674,42.1854745 612.762776,42.1854745 C609.533982,42.1854745 606.621945,40.3959006 605.163265,37.5144737 C603.044452,33.3254862 604.724064,28.1937768 608.913777,26.0713209 C610.116921,25.458818 611.407907,25.1499035 612.744143,25.1499035 L612.744143,25.1499035 Z" id="Fill-12"></path>
                        <path d="M127.299122,261.216527 C122.302876,261.216527 118.009352,264.995404 117.474325,270.073852 C116.902033,275.50915 120.844196,280.377217 126.274319,280.949774 C126.62568,280.987057 126.974379,281.005698 127.320416,281.005698 C132.319324,281.005698 136.610186,277.226821 137.145212,272.148373 C137.717505,266.713075 133.780666,261.845008 128.345219,261.272451 C127.993858,261.232505 127.645159,261.216527 127.299122,261.216527 Z M127.299122,264.268389 L127.299122,264.268389 C127.538686,264.268389 127.780912,264.281705 128.0258,264.305672 C129.843826,264.497412 131.475525,265.386873 132.628095,266.806282 C133.775342,268.225691 134.302383,270.009939 134.113394,271.826143 C133.7434,275.320073 130.82604,277.953836 127.320416,277.953836 C127.080852,277.953836 126.838626,277.94052 126.593738,277.916553 C122.843226,277.522421 120.114856,274.145665 120.508806,270.396082 C120.876138,266.899489 123.79616,264.268389 127.299122,264.268389 L127.299122,264.268389 Z" id="Fill-13"></path>
                        <path d="M668.152693,209.204375 C667.19976,209.204375 666.228194,209.337528 665.264613,209.619812 C659.77593,211.212319 656.619005,216.956532 658.210777,222.447754 C659.525718,226.974949 663.656871,229.917627 668.144708,229.917627 C669.100303,229.917627 670.071869,229.784474 671.03545,229.50219 C676.521471,227.909682 679.681058,222.162807 678.086624,216.674248 C676.774345,212.149715 672.64053,209.204375 668.152693,209.204375 Z M668.155355,212.400042 C671.314941,212.400042 674.139138,214.522498 675.022864,217.563709 C676.122197,221.355901 673.931515,225.33717 670.143738,226.434349 C669.491591,226.626089 668.818149,226.721959 668.144708,226.721959 C664.985121,226.721959 662.160925,224.599503 661.277199,221.558293 C660.177865,217.766101 662.365886,213.784832 666.156324,212.687652 C666.808472,212.495912 667.481913,212.400042 668.155355,212.400042 L668.155355,212.400042 Z" id="Fill-14"></path>
                        <path d="M308.859547,12.9051707 C302.97159,12.9051707 297.34183,16.2819261 294.743889,21.9915187 C291.200999,29.7862844 294.642739,38.9764916 302.436563,42.5210195 C304.51811,43.4690676 306.695483,43.916461 308.840914,43.916461 C314.731533,43.916461 320.361293,40.5397057 322.956572,34.830113 C326.499462,27.0380104 323.057722,17.842477 315.26656,14.3006122 C313.187674,13.3525642 311.004978,12.9051707 308.859547,12.9051707 Z M308.859547,17.6853567 L308.859547,17.6853567 C310.390096,17.6853567 311.878057,18.0129126 313.288824,18.6547092 C315.894751,19.8397692 317.880472,21.9675512 318.886642,24.6519119 C319.89015,27.3309466 319.791662,30.2443301 318.60715,32.8487992 C316.87164,36.6676219 313.038612,39.136275 308.840914,39.136275 C307.313027,39.136275 305.822405,38.8113822 304.416961,38.1695856 C299.037412,35.7248999 296.649755,29.3522063 299.095973,23.9754956 C300.831483,20.1540099 304.664511,17.6853567 308.859547,17.6853567 L308.859547,17.6853567 Z" id="Fill-15"></path>
                        <path d="M514.541431,338.546355 C509.105984,338.546355 504.296066,342.453059 503.337809,347.992216 C502.267756,354.189148 506.417541,360.079828 512.611608,361.15304 C513.269079,361.264888 513.921226,361.318149 514.565387,361.318149 C519.998172,361.318149 524.80809,357.414109 525.766347,351.874952 C526.839063,345.67802 522.686616,339.787339 516.492549,338.714128 C515.83774,338.599616 515.185593,338.546355 514.541431,338.546355 Z M514.541431,342.058926 L514.541431,342.058926 C514.991279,342.058926 515.446451,342.096209 515.893638,342.173438 C520.171191,342.913767 523.045962,346.998896 522.308636,351.275764 C521.651166,355.059967 518.395754,357.808241 514.565387,357.808241 C514.115539,357.808241 513.660367,357.765632 513.21318,357.691067 C508.935627,356.950737 506.058194,352.868272 506.798182,348.591403 C507.452991,344.804537 510.708403,342.058926 514.541431,342.058926 L514.541431,342.058926 Z" id="Fill-16"></path>
                        <path d="M120.522115,354.71377 C116.540025,354.71377 112.597862,356.482039 109.952008,359.858794 C105.381654,365.693551 106.401133,374.130113 112.235854,378.702581 C114.692718,380.62797 117.607417,381.562703 120.503482,381.562703 C124.485572,381.562703 128.427735,379.797097 131.073589,376.417678 C135.643943,370.585585 134.621802,362.14636 128.789744,357.573892 C126.332879,355.651166 123.418181,354.71377 120.522115,354.71377 Z M120.522115,358.857485 L120.522115,358.857485 C122.608986,358.857485 124.586722,359.539228 126.237053,360.833473 C128.188171,362.362067 129.423258,364.559089 129.724044,367.022416 C130.022169,369.485743 129.343403,371.91445 127.815516,373.863807 C126.045402,376.124742 123.380915,377.421651 120.503482,377.421651 C118.416611,377.421651 116.438875,376.737245 114.788544,375.443 C110.763864,372.287278 110.055819,366.439206 113.210082,362.412665 C114.980195,360.151731 117.647344,358.857485 120.522115,358.857485 L120.522115,358.857485 Z" id="Fill-17"></path>
                        <path d="M33.459141,670.640125 C31.4867286,670.640125 29.4956835,671.260617 27.8054246,672.549536 C23.6929048,675.673301 22.8916955,681.548003 26.0220018,685.659762 C27.8613229,688.083143 30.6509155,689.356084 33.4751119,689.356084 C35.4475243,689.356084 37.4359076,688.732929 39.1288283,687.44401 C43.2386862,684.320245 44.0398956,678.445543 40.9122511,674.333784 C39.07293,671.910403 36.2833374,670.640125 33.459141,670.640125 Z M33.459141,673.526878 L33.459141,673.526878 C35.5034226,673.526878 37.3800093,674.456284 38.6150961,676.080749 C39.6611934,677.454886 40.10838,679.156579 39.8741394,680.871587 C39.6425606,682.581269 38.7561728,684.099211 37.3800093,685.148455 C36.2460718,686.011286 34.8938647,686.469331 33.4751119,686.469331 C31.4334921,686.469331 29.5515818,685.539925 28.3191568,683.912797 C27.2703977,682.53866 26.8232111,680.836967 27.0574517,679.121959 C27.2890305,677.412277 28.1754182,675.891672 29.5515818,674.847754 C30.6881811,673.98226 32.0377264,673.526878 33.459141,673.526878 L33.459141,673.526878 Z" id="Fill-18"></path>
                        <path d="M346.383295,154.891342 C344.458795,154.891342 342.499692,155.224224 340.58584,155.919282 C331.793832,159.125602 327.263405,168.853746 330.468243,177.652484 C332.97302,184.533822 339.470535,188.802701 346.388618,188.802701 C348.313118,188.802701 350.274883,188.469819 352.186073,187.772098 C360.978082,184.568441 365.508508,174.837634 362.30367,166.041559 C359.796231,159.160221 353.301378,154.891342 346.383295,154.891342 Z M346.385957,160.121585 L346.385957,160.121585 C351.289038,160.121585 355.712992,163.221382 357.392603,167.833796 C359.607242,173.905564 356.466288,180.648422 350.397327,182.861422 C349.101018,183.332783 347.751473,183.572458 346.388618,183.572458 C341.482875,183.572458 337.058922,180.472661 335.376648,175.86291 C334.306594,172.91757 334.442348,169.735218 335.765275,166.8964 C337.088202,164.060245 339.43327,161.908495 342.374586,160.832621 C343.670895,160.358597 345.02044,160.121585 346.385957,160.121585 L346.385957,160.121585 Z" id="Fill-19"></path>
                        <path d="M350.059275,647.404959 C346.495091,647.404959 343.069323,649.386273 341.387049,652.800311 C339.031334,657.585823 340.998423,663.37797 345.784384,665.740101 C347.157886,666.416518 348.611242,666.736084 350.043304,666.736084 C353.607488,666.736084 357.035919,664.75477 358.718192,661.340732 C361.073907,656.55522 359.104157,650.76041 354.320857,648.403605 C352.947355,647.724526 351.491337,647.404959 350.059275,647.404959 Z M350.059275,650.384919 L350.059275,650.384919 C351.084078,650.384919 352.074277,650.619268 353.005915,651.077313 C354.605672,651.865578 355.800832,653.231726 356.375786,654.920104 C356.948078,656.611144 356.83362,658.422023 356.04572,660.019856 C354.90912,662.326063 352.611965,663.756124 350.043304,663.756124 C349.018502,663.756124 348.028303,663.524438 347.101988,663.066393 C343.798663,661.436602 342.433146,657.420713 344.059521,654.118524 C345.193459,651.81498 347.493276,650.384919 350.059275,650.384919 L350.059275,650.384919 Z" id="Fill-20"></path>
                        <path d="M261.337984,107.435679 L235.366557,109.824441 L252.860071,129.176871 L278.828837,126.785446 L261.337984,107.435679 Z M259.722256,111.579395 L270.547899,123.552496 L254.475799,125.033155 L243.650157,113.057391 L259.722256,111.579395 L259.722256,111.579395 Z" id="Fill-21"></path>
                        <path d="M17.2166845,487.789355 L12.7980549,513.509152 L30.7121375,532.480765 L35.1334289,506.758305 L17.2166845,487.789355 Z M19.7880075,496.305809 L30.8745088,508.044561 L28.1408145,523.964311 L17.056975,512.220233 L19.7880075,496.305809 L19.7880075,496.305809 Z" id="Fill-22"></path>
                        <path d="M604.228964,651.146553 L611.317405,689.26554 L646.048898,706.460895 L638.960458,668.347233 L604.228964,651.146553 Z M612.20113,661.689593 L633.692706,672.336492 L638.079394,695.920518 L616.585156,685.278945 L612.20113,661.689593 L612.20113,661.689593 Z" id="Fill-23"></path>
                        <path d="M124.272626,98.4372121 L130.306984,117.629859 L149.269826,124.311467 L143.235468,105.124146 L124.272626,98.4372121 Z M129.037293,103.369192 L140.77328,107.507582 L144.505159,119.38215 L132.769172,115.24376 L129.037293,103.369192 L129.037293,103.369192 Z" id="Fill-24"></path>
                        <path d="M358.185827,500.662569 L341.472228,516.611613 L344.197936,539.556506 L360.908874,523.610125 L358.185827,500.662569 Z M355.518678,508.076518 L357.206275,522.275934 L346.862423,532.14522 L345.177488,517.945804 L355.518678,508.076518 L355.518678,508.076518 Z" id="Fill-25"></path>
                        <path d="M203.919756,354.175832 L206.791865,374.921041 L225.105221,385.067285 L222.233112,364.32474 L203.919756,354.175832 Z M207.957744,360.06385 L219.289134,366.343336 L221.067233,379.179268 L209.735844,372.902444 L207.957744,360.06385 L207.957744,360.06385 Z" id="Fill-26"></path>
                        <path d="M260.334476,683.657144 L241.164012,687.332162 L232.600921,704.879039 L251.768723,701.204022 L260.334476,683.657144 Z M255.048092,687.702326 L249.748398,698.559607 L237.884644,700.83652 L243.184337,689.979239 L255.048092,687.702326 L255.048092,687.702326 Z" id="Fill-27"></path>
                        <path d="M393.723853,278.422534 L354.789338,280.608903 L333.169995,313.082211 L372.109834,310.898505 L393.723853,278.422534 Z M382.18218,285.026913 L368.809171,305.124999 L344.711669,306.477831 L358.090001,286.379746 L382.18218,285.026913 L382.18218,285.026913 Z" id="Fill-28"></path>
                        <path d="M70.9882125,0 L65.0709754,36.3693595 L90.6032013,62.9280198 L96.5177766,26.5586602 L70.9882125,0 Z M74.7280767,11.9944055 L90.5260084,28.4254627 L86.8659989,50.9336143 L71.0654054,34.499894 L74.7280767,11.9944055 L74.7280767,11.9944055 Z" id="Fill-29"></path>
                        <path d="M28.7530343,169.20527 C28.3670696,169.20527 27.9731195,169.122715 27.600464,168.946953 C26.2349478,168.310483 25.6466844,166.683355 26.2828606,165.31987 C27.768159,162.137518 30.3687621,159.833975 33.6082032,158.827339 C36.8476443,157.823367 40.2920459,158.249456 43.3052319,160.023052 C44.9848435,161.008382 46.8747393,161.245394 48.6235583,160.702131 C50.3803629,160.156204 51.7991156,158.885927 52.6242814,157.12032 C54.1095798,153.940631 56.7128447,151.637087 59.9522858,150.630452 C63.1864032,149.623817 66.6334667,150.047243 69.6493145,151.823501 C70.9482851,152.590462 71.3821626,154.260198 70.6182188,155.562432 C69.854275,156.864667 68.179987,157.290756 66.8836782,156.531785 C65.2067284,155.543791 63.3194945,155.29879 61.5706754,155.844716 C59.8165327,156.390643 58.3924563,157.666247 57.5646287,159.434516 C56.0819921,162.606216 53.4840509,164.907097 50.2446098,165.913732 C47.0078305,166.92303 43.5634289,166.502267 40.5422575,164.728672 C38.859984,163.743341 36.9754119,163.501003 35.2265928,164.03894 C33.4724501,164.584867 32.0510355,165.860471 31.2258698,167.62874 C30.7627122,168.62206 29.7804987,169.20527 28.7530343,169.20527" id="Fill-30"></path>
                        <path d="M564.352163,286.235941 L564.282956,286.233278 C563.300742,286.195995 562.534137,285.370447 562.571402,284.38778 C562.621977,283.120165 562.177452,281.961735 561.323006,281.122873 C560.46856,280.28401 559.308005,279.857921 558.025005,279.932486 C555.746483,280.044335 553.619685,279.280038 552.038561,277.730139 C550.457436,276.18024 549.632271,274.068437 549.714787,271.783534 C549.765362,270.515919 549.320837,269.354827 548.469053,268.518627 C547.611945,267.674438 546.438081,267.264328 545.16839,267.328241 C544.1915,267.317589 543.34504,266.63052 543.291803,265.650516 C543.235905,264.667848 543.98654,263.826322 544.968753,263.770398 C547.257923,263.663876 549.382059,264.422847 550.963183,265.975409 C552.538984,267.525307 553.361488,269.634448 553.273647,271.916687 C553.228396,273.184302 553.672921,274.345394 554.530029,275.18692 C555.384475,276.02312 556.547692,276.433231 557.822706,276.374643 C560.133171,276.273447 562.238674,277.027092 563.819798,278.582317 C565.395599,280.132216 566.218103,282.241356 566.130262,284.523595 C566.092997,285.482296 565.302435,286.235941 564.352163,286.235941" id="Fill-31"></path>
                        <path d="M525.928719,627.357471 C525.044993,627.357471 524.3263,626.646435 524.312991,625.7623 C524.305005,624.870177 525.018374,624.137836 525.910086,624.127184 C527.057332,624.113869 528.087459,623.658486 528.806151,622.848917 C529.527506,622.034022 529.857572,620.952821 529.732467,619.805044 C529.511535,617.743838 530.123755,615.781166 531.452006,614.279202 C532.782918,612.777238 534.654181,611.933049 536.727743,611.903756 C537.877651,611.89044 538.907778,611.435058 539.62647,610.622826 C540.347825,609.810593 540.675229,608.732056 540.552785,607.584278 C540.45696,606.697481 541.09846,605.901227 541.982185,605.805357 C542.868573,605.688182 543.664459,606.34862 543.760285,607.235418 C543.983878,609.299287 543.37432,611.261959 542.043407,612.763923 C540.712495,614.265887 538.841232,615.107412 536.770332,615.134043 C535.620424,615.150021 534.587635,615.608067 533.868943,616.420299 C533.147588,617.235194 532.820184,618.311069 532.942628,619.458846 C533.166221,621.520052 532.554001,623.48805 531.220427,624.987351 C529.892176,626.491978 528.018251,627.330841 525.950013,627.357471 L525.928719,627.357471" id="Fill-32"></path>
                        <path d="M109.949346,489.459091 C109.390363,489.459091 108.826056,489.272677 108.354913,488.894523 C105.815532,486.841307 104.314262,483.973195 104.130596,480.820137 C103.94693,477.669741 105.099501,474.649835 107.375361,472.319661 C108.637066,471.025416 109.278566,469.368995 109.177417,467.661976 C109.076267,465.952293 108.243116,464.386416 106.835011,463.246628 C104.295629,461.193412 102.79436,458.3253 102.610694,455.169579 C102.424366,452.019183 103.576937,448.999277 105.855459,446.669103 C106.840334,445.662468 108.448076,445.649152 109.448923,446.63182 C110.452431,447.611825 110.468402,449.217648 109.48885,450.22162 C108.221821,451.518528 107.580322,453.169623 107.678809,454.871316 C107.779958,456.580998 108.61311,458.152202 110.026539,459.29199 C112.563258,461.342543 114.061866,464.207992 114.248193,467.36105 C114.434521,470.511446 113.284613,473.534015 111.008752,475.869515 C109.741723,477.166423 109.100224,478.817518 109.201373,480.521874 C109.299861,482.228893 110.133012,483.800097 111.549103,484.939885 C112.637789,485.821356 112.808146,487.421853 111.927082,488.513706 C111.426659,489.136861 110.691995,489.459091 109.949346,489.459091" id="Fill-33"></path>
                        <path d="M137.472617,669.391151 C134.446122,669.391151 131.579336,668.392505 129.23693,666.48842 C126.354174,664.147594 124.647944,660.749534 124.432336,656.917396 C124.309892,654.79494 123.383577,652.922811 121.821086,651.65786 C120.258594,650.387582 118.238269,649.86296 116.130104,650.187853 C112.329017,650.755084 108.645052,649.79372 105.759633,647.444905 C102.879538,645.104078 101.17597,641.706018 100.963024,637.876543 C100.869861,636.228112 102.131566,634.816692 103.779235,634.723485 C105.440214,634.646256 106.840334,635.89523 106.930836,637.543661 C107.047957,639.671443 107.97161,641.538246 109.528777,642.805861 C111.093931,644.076138 113.122241,644.598097 115.233069,644.273205 C119.026169,643.708637 122.70215,644.672663 125.584906,647.01349 C128.470325,649.354316 130.181878,652.749713 130.40281,656.581851 C130.522592,658.712296 131.446245,660.579098 133.003413,661.846713 C134.568566,663.116991 136.586229,663.644276 138.70238,663.31672 C140.334079,663.061067 141.856643,664.192866 142.106854,665.822656 C142.354404,667.455109 141.231114,668.981041 139.599415,669.231368 C138.886046,669.33789 138.175339,669.391151 137.472617,669.391151" id="Fill-34"></path>
                        <path d="M13.2612124,261.642616 L12.9444553,261.63729 C11.8291506,261.600007 10.9534101,260.665274 10.9880138,259.549454 C11.0226176,258.43097 11.9515945,257.576129 13.0748847,257.589444 C14.5415503,257.656021 15.8325354,257.126073 16.7774833,256.148731 C17.7250931,255.171389 18.1962361,253.839861 18.105734,252.396485 C17.9460245,249.800005 18.821765,247.37396 20.5732459,245.571071 C22.3220649,243.765519 24.7283548,242.838776 27.3050014,242.897363 C28.7583579,242.931983 30.0626522,242.433991 31.0076001,241.456649 C31.9578716,240.476645 32.4316765,239.142453 32.3411745,237.699077 C32.2693052,236.583256 33.1184274,235.621893 34.2337321,235.552654 C35.3543604,235.472762 36.3072938,236.332929 36.3765012,237.44875 C36.5388726,240.042567 35.6631321,242.468611 33.9116512,244.274163 C32.1601703,246.077052 29.7485568,247.019774 27.1772338,246.942545 C25.7425101,246.870643 24.4222449,247.40858 23.477297,248.385922 C22.5270255,249.365927 22.0532206,250.700118 22.1437227,252.143494 C22.306094,254.737311 21.4330154,257.160692 19.6815345,258.968907 C18.0019229,260.697231 15.7340479,261.642616 13.2612124,261.642616" id="Fill-35"></path>
                        <path d="M258.891767,280.627544 C257.305319,280.627544 255.753475,280.228086 254.342708,279.445147 C251.994978,278.14025 250.34997,275.935239 249.713794,273.232237 C249.359771,271.732936 248.462736,270.515919 247.187722,269.807547 C245.91537,269.1045 244.408777,268.984662 242.944773,269.479991 C240.306904,270.372114 237.562563,270.143092 235.209509,268.832868 C232.859118,267.52797 231.21411,265.320297 230.577934,262.617295 C230.303766,261.450876 231.02512,260.28712 232.188338,260.012826 C233.359541,259.749183 234.517435,260.462882 234.788941,261.623975 C235.142964,263.125938 236.037337,264.340292 237.309689,265.048665 C238.582042,265.754375 240.091297,265.876875 241.557962,265.376221 C244.187845,264.48676 246.932187,264.718446 249.28524,266.02068 C251.638294,267.328241 253.285963,269.535915 253.924801,272.236254 C254.278824,273.740881 255.173197,274.955234 256.442888,275.660944 C257.720564,276.369317 259.229819,276.489155 260.693822,275.9885 C261.830422,275.615672 263.054861,276.220186 263.435502,277.349322 C263.818805,278.481121 263.209247,279.711453 262.077972,280.09227 C261.021227,280.449119 259.951173,280.627544 258.891767,280.627544" id="Fill-36"></path>
                        <path d="M32.4476475,376.806485 C31.7715439,376.806485 31.0954403,376.545505 30.5843699,376.023546 C28.239302,373.626795 27.0494662,370.524335 27.235794,367.283395 C27.4247836,364.047782 28.9579948,361.105105 31.5585979,358.998627 C33.0013071,357.829546 33.8530911,356.215733 33.9515786,354.463442 C34.052728,352.711151 33.3899335,351.012121 32.0909629,349.683256 C29.7432332,347.286506 28.5533974,344.181382 28.7397251,340.940443 C28.9287147,337.702166 30.4645878,334.762152 33.0651909,332.658338 C34.1858192,331.752899 35.8255035,331.925997 36.7331858,333.044481 C37.6382063,334.165628 37.4651877,335.80607 36.3445593,336.714172 C34.9018502,337.885917 34.0500661,339.49174 33.9489168,341.241368 C33.8477674,342.998985 34.5105619,344.698015 35.8148562,346.032206 C38.1572622,348.423631 39.3444362,351.523428 39.1607702,354.761705 C38.9744425,357.997318 37.4412313,360.945321 34.84329,363.054462 C33.3952572,364.226207 32.5434732,365.834693 32.4423238,367.584321 C32.3411745,369.336612 33.0066307,371.038305 34.310925,372.372496 C35.3197567,373.403099 35.3037857,375.054194 34.2736594,376.063492 C33.7652509,376.55882 33.1077801,376.806485 32.4476475,376.806485" id="Fill-37"></path>
                        <path d="M412.753241,115.920177 C411.432976,115.920177 410.096739,115.680502 408.789783,115.198488 C407.493474,114.721801 406.828018,113.281088 407.307147,111.981516 C407.786275,110.681945 409.226323,110.016181 410.522631,110.498194 C412.196919,111.11336 413.940415,111.025479 415.433699,110.25053 C416.932306,109.470254 418.010345,108.088128 418.468179,106.351815 C419.290683,103.244029 421.265757,100.740756 424.02607,99.3027054 C426.791706,97.861992 429.969925,97.6782411 432.988435,98.7860725 C434.665385,99.4065646 436.411542,99.3213468 437.904826,98.5463975 C439.400771,97.766122 440.476149,96.3813327 440.933983,94.6503461 C441.288005,93.3134919 442.664169,92.514575 443.995081,92.8660984 C445.333979,93.2202849 446.129865,94.5917589 445.778504,95.9286131 C444.956,99.044389 442.978264,101.552988 440.21529,102.991038 C437.452315,104.423763 434.271435,104.607514 431.258249,103.491693 C429.581299,102.87919 427.83248,102.969734 426.339196,103.747346 C424.84325,104.527622 423.770535,105.907085 423.312701,107.638072 C422.487535,110.753847 420.509799,113.259783 417.744163,114.697834 C416.181671,115.512729 414.480765,115.920177 412.753241,115.920177" id="Fill-38"></path>
                        <path d="M550.377582,410.550071 C550.020897,410.550071 549.661551,410.422244 549.376735,410.158601 L539.714311,401.293287 C539.112738,400.739371 539.070149,399.804639 539.623808,399.200125 C540.177468,398.595611 541.11443,398.553002 541.718665,399.109581 L551.38109,407.974895 C551.982662,408.528811 552.025251,409.466207 551.471592,410.068057 C551.178791,410.387624 550.779517,410.550071 550.377582,410.550071" id="Fill-39"></path>
                        <path d="M234.213987,481.254215 C233.782771,481.254215 233.351556,481.073127 233.042784,480.724267 L223.894091,470.364978 C223.321799,469.717855 223.383021,468.727198 224.029844,468.159967 C224.676668,467.590073 225.661543,467.64866 226.236497,468.29312 L235.38519,478.655072 C235.95482,479.302194 235.893598,480.290188 235.249437,480.860082 C234.951312,481.123725 234.581319,481.254215 234.213987,481.254215" id="Fill-40"></path>
                        <path d="M169.89897,193.047612 C169.049848,193.047612 168.285904,192.464403 168.086267,191.604236 C167.854688,190.602927 168.477555,189.604281 169.481063,189.372595 L185.515897,185.662957 C186.503434,185.420619 187.514928,186.054427 187.749169,187.058399 C187.978086,188.059708 187.355219,189.058354 186.354372,189.29004 L170.316876,192.997014 L169.89897,193.047612" id="Fill-41"></path>
                        <path d="M502.848033,51.6260089 C502.049486,51.6260089 501.328131,51.0827455 501.131156,50.2758394 C500.904901,49.3251283 501.487841,48.3717542 502.438112,48.1453944 L517.623824,44.4943442 C518.568772,44.2599953 519.524367,44.8485307 519.753284,45.7965788 C519.97954,46.7446268 519.3966,47.700664 518.446328,47.9270238 L503.260616,51.5780739 L502.848033,51.6260089" id="Fill-42"></path>
                        <path d="M704.659624,644.03353 C703.930284,644.03353 703.264828,643.532875 703.086485,642.789882 L699.761866,628.848783 C699.554243,627.977963 700.091932,627.104481 700.962349,626.896762 C701.822118,626.691707 702.705844,627.224318 702.913467,628.095138 L706.238086,642.036237 C706.443047,642.907057 705.90802,643.780539 705.037603,643.988258 L704.659624,644.03353" id="Fill-43"></path>
                        <path d="M443.007544,659.801486 C442.405972,659.801486 441.833679,659.457951 441.572821,658.872079 L435.945722,646.195931 C435.594362,645.40234 435.951046,644.47826 436.74427,644.126737 C437.534832,643.775213 438.461147,644.132063 438.809846,644.92299 L444.439606,657.596475 C444.788305,658.390066 444.434283,659.31681 443.641059,659.668333 L443.007544,659.801486" id="Fill-44"></path>
                        <path d="M436.834772,560.799706 C435.455947,560.799706 434.303376,559.723831 434.22086,558.331053 C434.135681,556.885013 435.237677,555.644029 436.683048,555.558811 L459.824955,554.200652 C461.283635,554.136739 462.510737,555.220603 462.595915,556.666642 C462.681093,558.112682 461.579098,559.353666 460.133727,559.438884 L436.989158,560.797043 L436.834772,560.799706" id="Fill-45"></path>
                        <path d="M285.267791,592.378227 C284.666219,592.378227 284.112559,591.986758 283.931555,591.379581 L280.455212,579.568926 C280.236942,578.83126 280.660172,578.05631 281.397498,577.840603 C282.126838,577.616906 282.906753,578.045658 283.125022,578.783325 L286.601366,590.593979 C286.819635,591.331646 286.396405,592.106595 285.65908,592.322303 L285.267791,592.378227" id="Fill-46"></path>
                        <path d="M718.34939,508.827499 L718.075222,508.808858 L697.903912,506.390803 C696.644869,506.239009 695.745172,505.096558 695.894234,503.836932 C696.04862,502.574643 697.203852,501.666541 698.449586,501.828988 L718.620896,504.247043 C719.87994,504.398837 720.779636,505.543951 720.627912,506.800914 C720.489497,507.969995 719.496637,508.827499 718.34939,508.827499" id="Fill-47"></path>
                        <polyline id="Fill-48" points="618.640085 351.47283 614.415769 347.270527 635.752959 325.798305 657.215254 347.148027 653.012232 351.37696 635.776915 334.234867 618.640085 351.47283"></polyline>
                        <polyline id="Fill-49" points="526.261447 519.250702 522.428419 517.061669 531.364165 501.434855 515.747238 492.497638 517.93792 488.6655 537.387875 499.794413 526.261447 519.250702"></polyline>
                        <polyline id="Fill-50" points="401.951555 727.523007 390.36463 711.315646 393.553497 709.033407 402.859237 722.047763 415.864914 712.732392 418.14876 715.92806 401.951555 727.523007"></polyline>
                        <polyline id="Fill-51" points="600.353347 137.642727 579.082703 133.624175 583.099397 112.343692 587.291772 113.13462 584.062978 130.223452 601.143909 133.451076 600.353347 137.642727"></polyline>
                        <polyline id="Fill-52" points="423.483058 26.3908877 402.704851 8.96651048 406.135944 4.87339298 422.820263 18.8650907 436.805492 2.17039086 440.896717 5.6030704 423.483058 26.3908877"></polyline>
                        <polyline id="Fill-53" points="440.843481 247.08635 438.189641 231.83769 422.948031 234.498083 422.295884 230.759152 441.274696 227.448973 444.580683 246.436565 440.843481 247.08635"></polyline>
                        <polyline id="Fill-54" points="708.588478 35.4133223 691.962718 22.2258677 694.557998 18.9503085 707.909712 29.5386202 718.493129 16.1807299 721.767174 18.7745467 708.588478 35.4133223"></polyline>
                        <polyline id="Fill-55" points="528.404216 716.870782 520.298959 701.66473 505.099937 709.773737 503.111554 706.045458 522.039792 695.949812 532.130771 714.884142 528.404216 716.870782"></polyline>
                        <polyline id="Fill-56" points="622.566277 550.003676 601.748143 529.354337 605.81275 525.250567 622.529012 541.833419 639.101535 525.104099 643.206069 529.173249 622.566277 550.003676"></polyline>
                    </g>
                    <g opacity="0.0824841486" style="mix-blend-mode: overlay;" transform="translate(728.000000, 774.000000)">
                        <path d="M510.352614,195.59371 L509.886071,192.008095 C512.5952,191.652716 515.007438,190.265677 516.674797,188.096274 C518.342157,185.924219 519.063178,183.235007 518.71062,180.521927 C518.355411,177.808847 516.966387,175.3928 514.798024,173.729945 C512.62966,172.061785 509.944389,171.335115 507.229959,171.693146 L506.760766,168.107531 C510.429488,167.6222 514.0664,168.60347 517.000847,170.860392 C519.932644,173.117314 521.812068,176.382027 522.291865,180.052509 C522.771662,183.72299 521.796164,187.361647 519.540324,190.297502 C517.284484,193.233357 514.021336,195.113683 510.352614,195.59371" id="Fill-3"></path>
                        <path d="M195.240154,30.0746115 C192.634407,30.0746115 190.147947,29.1331223 188.183696,27.3880523 C186.055095,25.4971177 184.788008,22.892773 184.618356,20.0470889 C184.448704,17.2067089 185.395043,14.4697602 187.285071,12.3374861 C189.175099,10.2078642 191.780846,8.94282098 194.622515,8.77043564 L194.786865,11.5471656 C192.687423,11.6718135 190.762935,12.6106506 189.365957,14.1833353 C187.96898,15.7586721 187.269166,17.7822108 187.393754,19.8826598 C187.520993,21.985761 188.454079,23.9111726 190.02866,25.3088199 C191.600591,26.7038151 193.623159,27.4039648 195.725252,27.2793169 L195.889602,30.0560469 L195.240154,30.0746115" id="Fill-6"></path>
                        <path d="M9.30699605,70.9803264 C5.65682984,70.9803264 2.08353714,69.1663023 0,65.8511996 L2.4228409,64.3289044 C3.57594351,66.1614932 5.37584392,67.4344926 7.49119078,67.9171716 C9.59858522,68.3998505 11.7775515,68.0259069 13.6092617,66.8749033 C17.3946192,64.4906814 18.5371186,59.47029 16.1566907,55.6804646 L18.5795316,54.1581694 C21.8002664,59.2819921 20.2548439,66.0739745 15.1334778,69.2989064 C13.3229741,70.4366496 11.3030564,70.9803264 9.30699605,70.9803264" id="Fill-9"></path>
                        <path d="M688.545405,132.707538 C686.170279,129.731902 685.091399,126.008379 685.512878,122.22651 C685.937007,118.439336 687.805829,115.044671 690.777387,112.665754 C696.916665,107.762054 705.900262,108.756584 710.809563,114.898807 L707.906926,117.219379 C704.277966,112.681666 697.640336,111.941735 693.099498,115.572436 C690.901976,117.330766 689.520903,119.836984 689.208108,122.637582 C688.897963,125.435529 689.693206,128.185738 691.450693,130.381662 L688.545405,132.707538" id="Fill-10"></path>
                        <path d="M610.20865,21.2643946 C608.347781,21.2643946 606.457753,21.6887278 604.68436,22.5877836 C598.643163,25.6509385 596.228275,33.029031 599.28731,39.067822 C601.44507,43.3350222 605.752637,45.7908503 610.227205,45.7908503 C612.090725,45.7908503 613.980753,45.3665171 615.756796,44.4648092 C621.795343,41.4096106 624.212882,34.031518 621.153847,27.9874228 C618.996087,23.7228748 614.683218,21.2643946 610.20865,21.2643946 Z M610.20865,25.0462637 L610.20865,25.0462637 C613.429385,25.0462637 616.329371,26.8284629 617.782016,29.6980158 C618.802578,31.7189024 618.980182,34.0182576 618.275066,36.1664442 C617.569951,38.322587 616.069592,40.067657 614.049674,41.0940128 C612.846206,41.6986875 611.560563,42.0116332 610.227205,42.0116332 C607.011772,42.0116332 604.111785,40.229434 602.659141,37.3598811 C600.549096,33.1881559 602.221757,28.0775936 606.394133,25.9638842 C607.5923,25.3539053 608.877943,25.0462637 610.20865,25.0462637 L610.20865,25.0462637 Z" id="Fill-12"></path>
                        <path d="M665.387923,208.342269 C664.438933,208.342269 663.471387,208.474873 662.511794,208.755994 C657.045822,210.341939 653.901961,216.06248 655.487146,221.531073 C656.796646,226.039613 660.910704,228.970164 665.379971,228.970164 C666.331612,228.970164 667.299158,228.83756 668.258751,228.556439 C673.722072,226.970494 676.868584,221.247301 675.280749,215.781359 C673.973899,211.275472 669.85719,208.342269 665.387923,208.342269 Z M665.390574,211.524767 C668.537086,211.524767 671.349596,213.638477 672.229666,216.667155 C673.32445,220.44372 671.142833,224.408583 667.37073,225.50124 C666.721281,225.69219 666.050626,225.787665 665.379971,225.787665 C662.233459,225.787665 659.420949,223.673956 658.54088,220.645278 C657.446095,216.868713 659.625061,212.90385 663.399815,211.811192 C664.049264,211.620242 664.719919,211.524767 665.390574,211.524767 L665.390574,211.524767 Z" id="Fill-14"></path>
                        <path d="M307.581507,12.8519901 C301.717914,12.8519901 296.11145,16.2148302 293.524259,21.9008943 C289.99603,29.6635388 293.423528,38.8158742 301.185101,42.3457956 C303.258035,43.2899368 305.426398,43.7354866 307.562952,43.7354866 C313.429196,43.7354866 319.03566,40.3726464 321.6202,34.6865823 C325.148429,26.92659 321.720931,17.7689504 313.962009,14.2416811 C311.891725,13.2975399 309.718061,12.8519901 307.581507,12.8519901 Z M307.581507,17.6124775 L307.581507,17.6124775 C309.105724,17.6124775 310.587527,17.9386836 311.992456,18.5778354 C314.5876,19.758012 316.565105,21.8770256 317.567111,24.5503244 C318.566467,27.218319 318.468387,30.1196969 317.288776,32.7134332 C315.560447,36.516519 311.74328,38.9749992 307.562952,38.9749992 C306.041386,38.9749992 304.556933,38.6514451 303.157305,38.0122933 C297.800016,35.5776819 295.422239,29.2312494 297.858334,23.8766955 C299.586663,20.0709577 303.40383,17.6124775 307.581507,17.6124775 L307.581507,17.6124775 Z" id="Fill-15"></path>
                        <path d="M344.949985,154.253054 C343.033448,154.253054 341.082452,154.584564 339.176519,155.276757 C330.420892,158.469864 325.909212,168.15792 329.100788,176.9204 C331.595201,183.77338 338.065829,188.024668 344.955286,188.024668 C346.871822,188.024668 348.82547,187.693157 350.728752,186.998312 C359.484379,183.807857 363.996059,174.117149 360.804483,165.357322 C358.307419,158.504341 351.839441,154.253054 344.949985,154.253054 Z M344.952635,159.461743 L344.952635,159.461743 C349.835429,159.461743 354.241076,162.548767 355.913737,167.142173 C358.119212,173.18892 354.991255,179.903992 348.947407,182.107872 C347.656462,182.577291 346.312501,182.815978 344.955286,182.815978 C340.069842,182.815978 335.664195,179.728955 333.988883,175.1382 C332.923257,172.204998 333.058448,169.035759 334.375901,166.20864 C335.693354,163.384172 338.028718,161.24129 340.957864,160.169849 C342.248809,159.697778 343.59277,159.461743 344.952635,159.461743 L344.952635,159.461743 Z" id="Fill-19"></path>
                        <path d="M260.256586,106.99295 L234.392626,109.371868 L251.813754,128.644548 L277.675062,126.262979 L260.256586,106.99295 Z M258.647544,111.11959 L269.42839,123.043351 L253.422796,124.517909 L242.641949,112.591495 L258.647544,111.11959 L258.647544,111.11959 Z" id="Fill-21"></path>
                        <path d="M123.758395,98.0315643 L129.767783,117.14512 L148.652157,123.799194 L142.64277,104.690943 L123.758395,98.0315643 Z M128.503346,102.94322 L140.19077,107.064556 L143.907206,118.89019 L132.219782,114.768855 L128.503346,102.94322 L128.503346,102.94322 Z" id="Fill-24"></path>
                        <path d="M70.6944681,0 L64.8017162,36.2194858 L90.2282915,62.668701 L96.1183927,26.4492152 L70.6944681,0 Z M74.418857,11.944978 L90.151418,28.3083248 L86.5065534,50.723723 L70.7713416,34.3577241 L74.418857,11.944978 L74.418857,11.944978 Z" id="Fill-29"></path>
                        <path d="M28.6340562,168.507995 C28.2496887,168.507995 27.8573687,168.425781 27.4862552,168.250743 C26.1263894,167.616896 25.5405602,165.996473 26.174104,164.638607 C27.6532563,161.469369 30.2430982,159.175318 33.4691348,158.172831 C36.6951713,157.172996 40.1253202,157.597329 43.1260378,159.363616 C44.7986993,160.344886 46.6807748,160.580922 48.4223574,160.039897 C50.1718924,159.49622 51.5847745,158.231177 52.4065257,156.472846 C53.8856781,153.30626 56.4781708,151.012209 59.7042073,150.009722 C62.9249422,149.007235 66.357742,149.428916 69.3611104,151.197855 C70.654706,151.961655 71.0867881,153.62451 70.3260055,154.921378 C69.5652228,156.218246 67.8978629,156.64258 66.6069182,155.886736 C64.9369075,154.902814 63.0574828,154.658822 61.3159002,155.202499 C59.569016,155.746176 58.1508323,157.016523 57.3264302,158.777506 C55.8499287,161.936136 53.2627376,164.227535 50.0367011,165.230022 C46.8133154,166.235161 43.3831664,165.816132 40.3744964,164.049845 C38.6991841,163.068575 36.8224102,162.827235 35.0808276,163.362956 C33.3339434,163.906633 31.9184105,165.17698 31.0966593,166.937963 C30.6354182,167.927189 29.6572691,168.507995 28.6340562,168.507995" id="Fill-30"></path>
                        <path d="M13.2063385,260.564418 L12.890892,260.559114 C11.7802023,260.521985 10.9080857,259.591104 10.9425462,258.479882 C10.9770067,257.366007 11.9021396,256.514689 13.0207817,256.527949 C14.4813784,256.594251 15.7670215,256.066487 16.7080593,255.093173 C17.6517478,254.119859 18.1209413,252.793818 18.0308138,251.356389 C17.8717651,248.770609 18.7438818,246.354562 20.4881152,244.559103 C22.2296978,242.760991 24.6260306,241.838066 27.1920152,241.896412 C28.6393578,241.930889 29.938255,241.43495 30.8792928,240.461636 C31.8256322,239.48567 32.2974765,238.156976 32.2073489,236.719548 C32.135777,235.608325 32.9813856,234.650924 34.0920752,234.58197 C35.2080665,234.502407 36.1570567,235.35903 36.2259778,236.470252 C36.3876772,239.05338 35.5155605,241.469427 33.7713272,243.267539 C32.0270938,245.062998 29.6254594,246.001835 27.0647763,245.924925 C25.6359894,245.853319 24.3211873,246.389039 23.3801496,247.362353 C22.4338102,248.33832 21.9619659,249.667013 22.0520935,251.104441 C22.2137929,253.687569 21.344327,256.100964 19.6000936,257.901728 C17.9274321,259.622929 15.6689415,260.564418 13.2063385,260.564418" id="Fill-35"></path>
                        <path d="M411.045296,115.442484 C409.730494,115.442484 408.399787,115.203796 407.098239,114.723769 C405.807295,114.249047 405.144592,112.81427 405.621738,111.520054 C406.098884,110.225838 407.532972,109.562817 408.823917,110.042844 C410.491277,110.655475 412.227558,110.567957 413.714663,109.796201 C415.207069,109.019141 416.280647,107.64271 416.736587,105.913552 C417.555687,102.818573 419.522589,100.325615 422.271479,98.893491 C425.025671,97.4587146 428.190739,97.2757209 431.196759,98.3789871 C432.866769,98.9969222 434.605701,98.9120556 436.092806,98.1402997 C437.582561,97.3632396 438.653489,95.9841569 439.109428,94.2603035 C439.461986,92.9289583 440.832455,92.1333336 442.15786,92.4834085 C443.491218,92.8361354 444.283811,94.2019577 443.933904,95.5333029 C443.114803,98.636239 441.145251,101.1345 438.393709,102.566625 C435.642168,103.993445 432.474449,104.176439 429.473732,103.065216 C427.803721,102.455237 426.062138,102.545408 424.575034,103.319816 C423.085278,104.096876 422.017001,105.470655 421.561062,107.194508 C420.739311,110.297444 418.769758,112.793053 416.015566,114.225178 C414.45954,115.036715 412.765672,115.442484 411.045296,115.442484" id="Fill-38"></path>
                        <path d="M169.19594,192.252087 C168.350331,192.252087 167.589548,191.671281 167.390738,190.814658 C167.160117,189.817475 167.780407,188.822944 168.779762,188.592213 L184.748245,184.897863 C185.731696,184.656523 186.739004,185.287719 186.972276,186.287554 C187.200245,187.284737 186.579956,188.279268 185.583251,188.509999 L169.612117,192.201697 L169.19594,192.252087" id="Fill-41"></path>
                        <path d="M500.767283,51.4132644 C499.97204,51.4132644 499.25367,50.8722396 499.05751,50.0686588 C498.832191,49.1218654 499.412719,48.17242 500.359058,47.946993 L515.481933,44.3109884 C516.42297,44.0776052 517.374611,44.6637154 517.602581,45.6078566 C517.8279,46.5519978 517.247373,47.5040953 516.301033,47.7295223 L501.178159,51.3655269 L500.767283,51.4132644" id="Fill-42"></path>
                        <polyline id="Fill-51" points="597.869126 137.075518 576.686499 133.073526 580.686572 111.880737 584.861599 112.668406 581.646165 129.686817 598.656417 132.90114 597.869126 137.075518"></polyline>
                        <polyline id="Fill-52" points="421.730714 26.282134 401.038486 8.92956057 404.455381 4.85331032 421.070662 18.7873499 434.998021 2.16144695 439.072317 5.57998083 421.730714 26.282134"></polyline>
                        <polyline id="Fill-53" points="439.019301 246.068137 436.376442 230.882315 421.197901 233.531745 420.548452 229.808222 439.448732 226.511684 442.741039 245.421029 439.019301 246.068137"></polyline>
                        <polyline id="Fill-54" points="705.656387 35.2673883 689.099424 22.1342776 691.683965 18.8722165 704.980431 29.4168951 715.520054 16.1140511 718.780551 18.6971791 705.656387 35.2673883"></polyline>
                    </g>
                    <g opacity="0.0824841486" style="mix-blend-mode: overlay;" transform="translate(0.000000, 774.000000)">
                        <path d="M512.473193,196.403063 L512.004712,192.802611 C514.725097,192.445762 517.147358,191.052983 518.821646,188.874603 C520.495934,186.69356 521.21995,183.993221 520.865927,181.268915 C520.509243,178.544608 519.114446,176.118564 516.937073,174.448827 C514.759701,172.773765 512.063272,172.044088 509.337563,172.4036 L508.86642,168.803148 C512.550386,168.315809 516.20241,169.30114 519.14905,171.567401 C522.093029,173.833661 523.980263,177.111884 524.462053,180.797554 C524.943843,184.483223 523.964292,188.136937 521.699079,191.08494 C519.433865,194.032943 516.157159,195.92105 512.473193,196.403063" id="Fill-3"></path>
                        <path d="M196.051401,30.1990582 C193.434827,30.1990582 190.938035,29.2536732 188.965623,27.5013822 C186.828177,25.602623 185.555825,22.9875018 185.385468,20.1300424 C185.215111,17.2779091 186.165383,14.529635 188.063264,12.3885378 C189.961145,10.2501036 192.577719,8.97982576 195.431196,8.8067271 L195.596229,11.594947 C193.488063,11.7201107 191.555578,12.6628326 190.152797,14.242025 C188.750015,15.8238804 188.047293,17.8557923 188.172399,19.9649329 C188.300166,22.0767365 189.237129,24.0101154 190.818253,25.413546 C192.396715,26.8143136 194.427688,27.5173605 196.538515,27.3921968 L196.703548,30.1804168 L196.051401,30.1990582" id="Fill-6"></path>
                        <path d="M9.34566778,71.2740381 C5.68033467,71.2740381 2.0921945,69.4525077 0,66.1236873 L2.4329081,64.595093 C3.590802,66.4352649 5.39818122,67.7135319 7.52231761,68.1982081 C9.63846853,68.6828844 11.8264887,68.3073935 13.6658098,67.151627 C17.466896,64.7575394 18.6141426,59.7163739 16.2238237,55.9108665 L18.6567318,54.3822722 C21.8908493,59.5272969 20.3390053,66.347384 15.1963593,69.5856605 C13.3783327,70.7281116 11.350022,71.2740381 9.34566778,71.2740381" id="Fill-9"></path>
                        <path d="M691.406397,133.256673 C689.021402,130.268724 687.938039,126.529793 688.361269,122.732275 C688.787161,118.92943 690.663748,115.520718 693.647654,113.131957 C699.81244,108.207966 708.833366,109.206612 713.763066,115.37425 L710.848367,117.704424 C707.204329,113.147935 700.539119,112.404942 695.979412,116.050666 C693.772759,117.816273 692.385949,120.332861 692.071853,123.145048 C691.76042,125.954573 692.558967,128.716162 694.323757,130.921173 L691.406397,133.256673" id="Fill-10"></path>
                        <path d="M612.744143,21.3523852 C610.875542,21.3523852 608.97766,21.7784742 607.196899,22.6812503 C601.1306,25.7570803 598.705677,33.1657028 601.777424,39.229482 C603.944149,43.5143395 608.269615,45.9803296 612.762776,45.9803296 C614.634039,45.9803296 616.53192,45.5542406 618.315343,44.6488015 C624.37898,41.5809607 626.806565,34.1723381 623.734818,28.1032329 C621.568093,23.8210384 617.237303,21.3523852 612.744143,21.3523852 Z M612.744143,25.1499035 L612.744143,25.1499035 C615.97826,25.1499035 618.890297,26.9394773 620.348977,29.8209042 C621.37378,31.850153 621.552122,34.1590228 620.844076,36.3160984 C620.136031,38.4811632 618.629438,40.2334542 616.601127,41.264057 C615.392659,41.8712338 614.101674,42.1854745 612.762776,42.1854745 C609.533982,42.1854745 606.621945,40.3959006 605.163265,37.5144737 C603.044452,33.3254862 604.724064,28.1937768 608.913777,26.0713209 C610.116921,25.458818 611.407907,25.1499035 612.744143,25.1499035 L612.744143,25.1499035 Z" id="Fill-12"></path>
                        <path d="M668.152693,209.204375 C667.19976,209.204375 666.228194,209.337528 665.264613,209.619812 C659.77593,211.212319 656.619005,216.956532 658.210777,222.447754 C659.525718,226.974949 663.656871,229.917627 668.144708,229.917627 C669.100303,229.917627 670.071869,229.784474 671.03545,229.50219 C676.521471,227.909682 679.681058,222.162807 678.086624,216.674248 C676.774345,212.149715 672.64053,209.204375 668.152693,209.204375 Z M668.155355,212.400042 C671.314941,212.400042 674.139138,214.522498 675.022864,217.563709 C676.122197,221.355901 673.931515,225.33717 670.143738,226.434349 C669.491591,226.626089 668.818149,226.721959 668.144708,226.721959 C664.985121,226.721959 662.160925,224.599503 661.277199,221.558293 C660.177865,217.766101 662.365886,213.784832 666.156324,212.687652 C666.808472,212.495912 667.481913,212.400042 668.155355,212.400042 L668.155355,212.400042 Z" id="Fill-14"></path>
                        <path d="M308.859547,12.9051707 C302.97159,12.9051707 297.34183,16.2819261 294.743889,21.9915187 C291.200999,29.7862844 294.642739,38.9764916 302.436563,42.5210195 C304.51811,43.4690676 306.695483,43.916461 308.840914,43.916461 C314.731533,43.916461 320.361293,40.5397057 322.956572,34.830113 C326.499462,27.0380104 323.057722,17.842477 315.26656,14.3006122 C313.187674,13.3525642 311.004978,12.9051707 308.859547,12.9051707 Z M308.859547,17.6853567 L308.859547,17.6853567 C310.390096,17.6853567 311.878057,18.0129126 313.288824,18.6547092 C315.894751,19.8397692 317.880472,21.9675512 318.886642,24.6519119 C319.89015,27.3309466 319.791662,30.2443301 318.60715,32.8487992 C316.87164,36.6676219 313.038612,39.136275 308.840914,39.136275 C307.313027,39.136275 305.822405,38.8113822 304.416961,38.1695856 C299.037412,35.7248999 296.649755,29.3522063 299.095973,23.9754956 C300.831483,20.1540099 304.664511,17.6853567 308.859547,17.6853567 L308.859547,17.6853567 Z" id="Fill-15"></path>
                        <path d="M346.383295,154.891342 C344.458795,154.891342 342.499692,155.224224 340.58584,155.919282 C331.793832,159.125602 327.263405,168.853746 330.468243,177.652484 C332.97302,184.533822 339.470535,188.802701 346.388618,188.802701 C348.313118,188.802701 350.274883,188.469819 352.186073,187.772098 C360.978082,184.568441 365.508508,174.837634 362.30367,166.041559 C359.796231,159.160221 353.301378,154.891342 346.383295,154.891342 Z M346.385957,160.121585 L346.385957,160.121585 C351.289038,160.121585 355.712992,163.221382 357.392603,167.833796 C359.607242,173.905564 356.466288,180.648422 350.397327,182.861422 C349.101018,183.332783 347.751473,183.572458 346.388618,183.572458 C341.482875,183.572458 337.058922,180.472661 335.376648,175.86291 C334.306594,172.91757 334.442348,169.735218 335.765275,166.8964 C337.088202,164.060245 339.43327,161.908495 342.374586,160.832621 C343.670895,160.358597 345.02044,160.121585 346.385957,160.121585 L346.385957,160.121585 Z" id="Fill-19"></path>
                        <path d="M261.337984,107.435679 L235.366557,109.824441 L252.860071,129.176871 L278.828837,126.785446 L261.337984,107.435679 Z M259.722256,111.579395 L270.547899,123.552496 L254.475799,125.033155 L243.650157,113.057391 L259.722256,111.579395 L259.722256,111.579395 Z" id="Fill-21"></path>
                        <path d="M124.272626,98.4372121 L130.306984,117.629859 L149.269826,124.311467 L143.235468,105.124146 L124.272626,98.4372121 Z M129.037293,103.369192 L140.77328,107.507582 L144.505159,119.38215 L132.769172,115.24376 L129.037293,103.369192 L129.037293,103.369192 Z" id="Fill-24"></path>
                        <path d="M70.9882125,0 L65.0709754,36.3693595 L90.6032013,62.9280198 L96.5177766,26.5586602 L70.9882125,0 Z M74.7280767,11.9944055 L90.5260084,28.4254627 L86.8659989,50.9336143 L71.0654054,34.499894 L74.7280767,11.9944055 L74.7280767,11.9944055 Z" id="Fill-29"></path>
                        <path d="M28.7530343,169.20527 C28.3670696,169.20527 27.9731195,169.122715 27.600464,168.946953 C26.2349478,168.310483 25.6466844,166.683355 26.2828606,165.31987 C27.768159,162.137518 30.3687621,159.833975 33.6082032,158.827339 C36.8476443,157.823367 40.2920459,158.249456 43.3052319,160.023052 C44.9848435,161.008382 46.8747393,161.245394 48.6235583,160.702131 C50.3803629,160.156204 51.7991156,158.885927 52.6242814,157.12032 C54.1095798,153.940631 56.7128447,151.637087 59.9522858,150.630452 C63.1864032,149.623817 66.6334667,150.047243 69.6493145,151.823501 C70.9482851,152.590462 71.3821626,154.260198 70.6182188,155.562432 C69.854275,156.864667 68.179987,157.290756 66.8836782,156.531785 C65.2067284,155.543791 63.3194945,155.29879 61.5706754,155.844716 C59.8165327,156.390643 58.3924563,157.666247 57.5646287,159.434516 C56.0819921,162.606216 53.4840509,164.907097 50.2446098,165.913732 C47.0078305,166.92303 43.5634289,166.502267 40.5422575,164.728672 C38.859984,163.743341 36.9754119,163.501003 35.2265928,164.03894 C33.4724501,164.584867 32.0510355,165.860471 31.2258698,167.62874 C30.7627122,168.62206 29.7804987,169.20527 28.7530343,169.20527" id="Fill-30"></path>
                        <path d="M13.2612124,261.642616 L12.9444553,261.63729 C11.8291506,261.600007 10.9534101,260.665274 10.9880138,259.549454 C11.0226176,258.43097 11.9515945,257.576129 13.0748847,257.589444 C14.5415503,257.656021 15.8325354,257.126073 16.7774833,256.148731 C17.7250931,255.171389 18.1962361,253.839861 18.105734,252.396485 C17.9460245,249.800005 18.821765,247.37396 20.5732459,245.571071 C22.3220649,243.765519 24.7283548,242.838776 27.3050014,242.897363 C28.7583579,242.931983 30.0626522,242.433991 31.0076001,241.456649 C31.9578716,240.476645 32.4316765,239.142453 32.3411745,237.699077 C32.2693052,236.583256 33.1184274,235.621893 34.2337321,235.552654 C35.3543604,235.472762 36.3072938,236.332929 36.3765012,237.44875 C36.5388726,240.042567 35.6631321,242.468611 33.9116512,244.274163 C32.1601703,246.077052 29.7485568,247.019774 27.1772338,246.942545 C25.7425101,246.870643 24.4222449,247.40858 23.477297,248.385922 C22.5270255,249.365927 22.0532206,250.700118 22.1437227,252.143494 C22.306094,254.737311 21.4330154,257.160692 19.6815345,258.968907 C18.0019229,260.697231 15.7340479,261.642616 13.2612124,261.642616" id="Fill-35"></path>
                        <path d="M412.753241,115.920177 C411.432976,115.920177 410.096739,115.680502 408.789783,115.198488 C407.493474,114.721801 406.828018,113.281088 407.307147,111.981516 C407.786275,110.681945 409.226323,110.016181 410.522631,110.498194 C412.196919,111.11336 413.940415,111.025479 415.433699,110.25053 C416.932306,109.470254 418.010345,108.088128 418.468179,106.351815 C419.290683,103.244029 421.265757,100.740756 424.02607,99.3027054 C426.791706,97.861992 429.969925,97.6782411 432.988435,98.7860725 C434.665385,99.4065646 436.411542,99.3213468 437.904826,98.5463975 C439.400771,97.766122 440.476149,96.3813327 440.933983,94.6503461 C441.288005,93.3134919 442.664169,92.514575 443.995081,92.8660984 C445.333979,93.2202849 446.129865,94.5917589 445.778504,95.9286131 C444.956,99.044389 442.978264,101.552988 440.21529,102.991038 C437.452315,104.423763 434.271435,104.607514 431.258249,103.491693 C429.581299,102.87919 427.83248,102.969734 426.339196,103.747346 C424.84325,104.527622 423.770535,105.907085 423.312701,107.638072 C422.487535,110.753847 420.509799,113.259783 417.744163,114.697834 C416.181671,115.512729 414.480765,115.920177 412.753241,115.920177" id="Fill-38"></path>
                        <path d="M169.89897,193.047612 C169.049848,193.047612 168.285904,192.464403 168.086267,191.604236 C167.854688,190.602927 168.477555,189.604281 169.481063,189.372595 L185.515897,185.662957 C186.503434,185.420619 187.514928,186.054427 187.749169,187.058399 C187.978086,188.059708 187.355219,189.058354 186.354372,189.29004 L170.316876,192.997014 L169.89897,193.047612" id="Fill-41"></path>
                        <path d="M502.848033,51.6260089 C502.049486,51.6260089 501.328131,51.0827455 501.131156,50.2758394 C500.904901,49.3251283 501.487841,48.3717542 502.438112,48.1453944 L517.623824,44.4943442 C518.568772,44.2599953 519.524367,44.8485307 519.753284,45.7965788 C519.97954,46.7446268 519.3966,47.700664 518.446328,47.9270238 L503.260616,51.5780739 L502.848033,51.6260089" id="Fill-42"></path>
                        <polyline id="Fill-51" points="600.353347 137.642727 579.082703 133.624175 583.099397 112.343692 587.291772 113.13462 584.062978 130.223452 601.143909 133.451076 600.353347 137.642727"></polyline>
                        <polyline id="Fill-52" points="423.483058 26.3908877 402.704851 8.96651048 406.135944 4.87339298 422.820263 18.8650907 436.805492 2.17039086 440.896717 5.6030704 423.483058 26.3908877"></polyline>
                        <polyline id="Fill-53" points="440.843481 247.08635 438.189641 231.83769 422.948031 234.498083 422.295884 230.759152 441.274696 227.448973 444.580683 246.436565 440.843481 247.08635"></polyline>
                        <polyline id="Fill-54" points="708.588478 35.4133223 691.962718 22.2258677 694.557998 18.9503085 707.909712 29.5386202 718.493129 16.1807299 721.767174 18.7745467 708.588478 35.4133223"></polyline>
                    </g>
                </g>
            </g>
        </g>
    </g>
</svg>